Aercom.ufo
<glyph name="exclam" format="1">
  <advance width="425"/>
  <unicode hex="0021"/>
  <outline>
    <contour>
      <point x="172" y="304" type="line"/>
      <point x="248" y="305" type="line"/>
      <point x="305" y="1465" type="line"/>
      <point x="120" y="1465" type="line"/>
    </contour>
    <contour>
      <point x="137" y="197" type="line"/>
      <point x="137" y="0" type="line"/>
      <point x="301" y="0" type="line"/>
      <point x="301" y="197" type="line"/>
    </contour>
  </outline>
</glyph>
<glyph name="quotedbl" format="1">
  <advance width="548"/>
  <unicode hex="0022"/>
  <outline>
    <contour>
      <point x="476" y="1464" type="line"/>
      <point x="425" y="1000" type="line"/>
      <point x="374" y="1000" type="line"/>
      <point x="322" y="1464" type="line"/>
    </contour>
    <contour>
      <point x="72" y="1464" type="line"/>
      <point x="226" y="1464" type="line"/>
      <point x="175" y="1000" type="line"/>
      <point x="124" y="1000" type="line"/>
    </contour>
  </outline>
</glyph>
<glyph name="numbersign" format="1">
  <advance width="1260"/>
  <unicode hex="0023"/>
  <outline>
    <contour>
      <point x="74" y="551" type="line"/>
      <point x="1100" y="551" type="line"/>
      <point x="1129" y="649" type="line"/>
      <point x="103" y="649" type="line"/>
    </contour>
    <contour>
      <point x="1064" y="1464" type="line"/>
      <point x="925" y="1463" type="line"/>
      <point x="629" y="0" type="line"/>
      <point x="763" y="1" type="line"/>
    </contour>
    <contour>
      <point x="301" y="1" type="line"/>
      <point x="602" y="1464" type="line"/>
      <point x="463" y="1463" type="line"/>
      <point x="167" y="0" type="line"/>
    </contour>
    <contour>
      <point x="172" y="999" type="line"/>
      <point x="143" y="901" type="line"/>
      <point x="1169" y="901" type="line"/>
      <point x="1198" y="999" type="line"/>
    </contour>
    <contour>
      <point x="227.0" y="0.0" type="move" name="bot"/>
    </contour>
    <contour>
      <point x="227.0" y="0.0" type="move" name="bot"/>
    </contour>
    <contour>
      <point x="642.0" y="0.0" type="move" name="bot"/>
    </contour>
    <contour>
      <point x="642.0" y="0.0" type="move" name="bot"/>
    </contour>
    <contour>
      <point x="642.0" y="0.0" type="move" name="bot"/>
    </contour>
    <contour>
      <point x="642.0" y="0.0" type="move" name="bot"/>
    </contour>
  </outline>
</glyph>
<glyph name="dollar" format="1">
  <advance width="1323"/>
  <unicode hex="0024"/>
  <outline>
    <contour>
      <point x="671" y="1482" type="curve" smooth="yes"/>
      <point x="903" y="1482"/>
      <point x="1060" y="1404"/>
      <point x="1178" y="1224" type="curve"/>
      <point x="1070" y="1144" type="line"/>
      <point x="990" y="1286"/>
      <point x="850" y="1364"/>
      <point x="692" y="1364" type="curve" smooth="yes"/>
      <point x="499" y="1364"/>
      <point x="337" y="1298"/>
      <point x="337" y="1128" type="curve" smooth="yes"/>
      <point x="337" y="931"/>
      <point x="593" y="895"/>
      <point x="766" y="829" type="curve" smooth="yes"/>
      <point x="1035" y="726"/>
      <point x="1211" y="646"/>
      <point x="1211" y="393" type="curve" smooth="yes"/>
      <point x="1211" y="126"/>
      <point x="994" y="-25"/>
      <point x="668" y="-25" type="curve" smooth="yes"/>
      <point x="443" y="-25"/>
      <point x="154" y="69"/>
      <point x="98" y="373" type="curve"/>
      <point x="221" y="426" type="line"/>
      <point x="281" y="205"/>
      <point x="430" y="101"/>
      <point x="677" y="101" type="curve" smooth="yes"/>
      <point x="856" y="101"/>
      <point x="1058" y="167"/>
      <point x="1058" y="388" type="curve" smooth="yes"/>
      <point x="1058" y="584"/>
      <point x="902" y="633"/>
      <point x="618" y="731" type="curve" smooth="yes"/>
      <point x="408" y="804"/>
      <point x="184" y="877"/>
      <point x="184" y="1116" type="curve" smooth="yes"/>
      <point x="184" y="1369"/>
      <point x="425" y="1482"/>
    </contour>
    <contour>
      <point x="640" y="-201" type="line"/>
      <point x="640" y="1674" type="line"/>
      <point x="733" y="1674" type="line"/>
      <point x="733" y="-201" type="line"/>
    </contour>
  </outline>
</glyph>
<glyph name="percent" format="1">
  <advance width="1677"/>
  <unicode hex="0025"/>
  <outline>
    <contour>
      <point x="357" y="1296" type="curve" smooth="yes"/>
      <point x="558" y="1296"/>
      <point x="660" y="1122"/>
      <point x="660" y="950" type="curve" smooth="yes"/>
      <point x="660" y="776"/>
      <point x="558" y="604"/>
      <point x="357" y="604" type="curve" smooth="yes"/>
      <point x="152" y="604"/>
      <point x="50" y="775"/>
      <point x="50" y="948" type="curve" smooth="yes"/>
      <point x="50" y="1121"/>
      <point x="154" y="1296"/>
    </contour>
    <contour>
      <point x="357" y="1204" type="curve" smooth="yes"/>
      <point x="225" y="1204"/>
      <point x="161" y="1079"/>
      <point x="161" y="953" type="curve" smooth="yes"/>
      <point x="161" y="825"/>
      <point x="227" y="698"/>
      <point x="357" y="698" type="curve" smooth="yes"/>
      <point x="484" y="698"/>
      <point x="548" y="825"/>
      <point x="548" y="952" type="curve" smooth="yes"/>
      <point x="548" y="1078"/>
      <point x="485" y="1204"/>
    </contour>
    <contour>
      <point x="394" y="-38" type="line"/>
      <point x="307" y="21" type="line"/>
      <point x="1273" y="1358" type="line"/>
      <point x="1359" y="1301" type="line"/>
    </contour>
    <contour>
      <point x="1325" y="692" type="curve" smooth="yes"/>
      <point x="1527" y="692"/>
      <point x="1628" y="518"/>
      <point x="1628" y="346" type="curve" smooth="yes"/>
      <point x="1628" y="172"/>
      <point x="1527" y="0"/>
      <point x="1325" y="0" type="curve" smooth="yes"/>
      <point x="1120" y="0"/>
      <point x="1019" y="171"/>
      <point x="1019" y="344" type="curve" smooth="yes"/>
      <point x="1019" y="517"/>
      <point x="1122" y="692"/>
    </contour>
    <contour>
      <point x="1325" y="599" type="curve" smooth="yes"/>
      <point x="1194" y="599"/>
      <point x="1129" y="474"/>
      <point x="1129" y="349" type="curve" smooth="yes"/>
      <point x="1129" y="221"/>
      <point x="1196" y="93"/>
      <point x="1325" y="93" type="curve" smooth="yes"/>
      <point x="1452" y="93"/>
      <point x="1517" y="221"/>
      <point x="1517" y="348" type="curve" smooth="yes"/>
      <point x="1517" y="473"/>
      <point x="1453" y="599"/>
    </contour>
  </outline>
</glyph>
<glyph name="ampersand" format="1">
  <advance width="1391"/>
  <unicode hex="0026"/>
  <outline>
    <contour>
      <point x="734" y="1489" type="curve" smooth="yes"/>
      <point x="903" y="1489"/>
      <point x="1052" y="1398"/>
      <point x="1052" y="1220" type="curve" smooth="yes"/>
      <point x="1052" y="1045"/>
      <point x="903" y="933"/>
      <point x="689" y="832" type="curve"/>
      <point x="1053" y="381" type="line"/>
      <point x="1124" y="481"/>
      <point x="1164" y="655"/>
      <point x="1200" y="810" type="curve"/>
      <point x="1328" y="791" type="line"/>
      <point x="1282" y="576"/>
      <point x="1214" y="406"/>
      <point x="1140" y="285" type="curve"/>
      <point x="1219" y="194"/>
      <point x="1255" y="139"/>
      <point x="1342" y="57" type="curve"/>
      <point x="1254" y="-21" type="line"/>
      <point x="1176" y="47"/>
      <point x="1116" y="123"/>
      <point x="1050" y="195" type="curve"/>
      <point x="928" y="77"/>
      <point x="734" y="-26"/>
      <point x="513" y="-26" type="curve" smooth="yes"/>
      <point x="249" y="-26"/>
      <point x="65" y="123"/>
      <point x="65" y="369" type="curve" smooth="yes"/>
      <point x="65" y="612"/>
      <point x="246" y="777"/>
      <point x="496" y="873" type="curve"/>
      <point x="411" y="979"/>
      <point x="366" y="1069"/>
      <point x="366" y="1180" type="curve" smooth="yes"/>
      <point x="366" y="1380"/>
      <point x="546" y="1489"/>
    </contour>
    <contour>
      <point x="730" y="1391" type="curve" smooth="yes"/>
      <point x="615" y="1391"/>
      <point x="501" y="1316"/>
      <point x="501" y="1190" type="curve" smooth="yes"/>
      <point x="501" y="1092"/>
      <point x="548" y="1008"/>
      <point x="625" y="917" type="curve"/>
      <point x="840" y="1020"/>
      <point x="924" y="1098"/>
      <point x="924" y="1213" type="curve" smooth="yes"/>
      <point x="924" y="1333"/>
      <point x="831" y="1391"/>
    </contour>
    <contour>
      <point x="561" y="785" type="curve"/>
      <point x="303" y="666"/>
      <point x="212" y="547.286"/>
      <point x="212" y="379" type="curve" smooth="yes"/>
      <point x="212" y="216"/>
      <point x="317" y="85"/>
      <point x="533" y="85" type="curve" smooth="yes"/>
      <point x="673" y="85"/>
      <point x="853" y="150"/>
      <point x="972" y="283" type="curve"/>
      <point x="842" y="445"/>
      <point x="680" y="635"/>
    </contour>
  </outline>
</glyph>
<glyph name="parenleft" format="1">
  <advance width="694"/>
  <unicode hex="0028"/>
  <outline>
    <contour>
      <point x="566" y="1487" type="line"/>
      <point x="275" y="1418"/>
      <point x="97" y="1152"/>
      <point x="97" y="613" type="curve" smooth="yes"/>
      <point x="97" y="74"/>
      <point x="274" y="-190"/>
      <point x="566" y="-260" type="curve"/>
      <point x="603" y="-163" type="line"/>
      <point x="334" y="-91"/>
      <point x="248" y="198"/>
      <point x="248" y="613" type="curve" smooth="yes"/>
      <point x="248" y="1027"/>
      <point x="333" y="1316"/>
      <point x="603" y="1392" type="curve"/>
    </contour>
  </outline>
</glyph>
<glyph name="parenright" format="1">
  <advance width="694"/>
  <unicode hex="0029"/>
  <outline>
    <contour>
      <point x="91" y="1392" type="line"/>
      <point x="359" y="1316"/>
      <point x="444" y="1027"/>
      <point x="444" y="613" type="curve" smooth="yes"/>
      <point x="444" y="198"/>
      <point x="359" y="-91"/>
      <point x="91" y="-163" type="curve"/>
      <point x="127" y="-260" type="line"/>
      <point x="420" y="-190"/>
      <point x="597" y="74"/>
      <point x="597" y="613" type="curve" smooth="yes"/>
      <point x="597" y="1152"/>
      <point x="418" y="1418"/>
      <point x="127" y="1487" type="curve"/>
    </contour>
  </outline>
</glyph>
<glyph name="asterisk" format="1">
  <advance width="762"/>
  <unicode hex="002A"/>
  <outline>
    <contour>
      <point x="400" y="649" type="line"/>
      <point x="400" y="917" type="line"/>
      <point x="656" y="782" type="line"/>
      <point x="703" y="870" type="line"/>
      <point x="457" y="1000" type="line"/>
      <point x="702" y="1130" type="line"/>
      <point x="655" y="1218" type="line"/>
      <point x="400" y="1083" type="line"/>
      <point x="400" y="1350" type="line"/>
      <point x="300" y="1350" type="line"/>
      <point x="300" y="1082" type="line"/>
      <point x="44" y="1217" type="line"/>
      <point x="-3" y="1129" type="line"/>
      <point x="243" y="999" type="line"/>
      <point x="-2" y="869" type="line"/>
      <point x="45" y="781" type="line"/>
      <point x="300" y="916" type="line"/>
      <point x="300" y="649" type="line"/>
    </contour>
    <contour>
      <point x="375.0" y="1023.0" type="move" name="_top"/>
    </contour>
  </outline>
</glyph>
<glyph name="plus" format="1">
  <advance width="877"/>
  <unicode hex="002B"/>
  <outline>
    <contour>
      <point x="150" y="400" type="line"/>
      <point x="399" y="400" type="line"/>
      <point x="399" y="150" type="line"/>
      <point x="501" y="150" type="line"/>
      <point x="501" y="400" type="line"/>
      <point x="750" y="400" type="line"/>
      <point x="750" y="500" type="line"/>
      <point x="501" y="500" type="line"/>
      <point x="501" y="750" type="line"/>
      <point x="399" y="750" type="line"/>
      <point x="399" y="500" type="line"/>
      <point x="150" y="500" type="line"/>
    </contour>
  </outline>
</glyph>
<glyph name="comma" format="1">
  <advance width="427"/>
  <unicode hex="002C"/>
  <outline>
    <contour>
      <point x="137" y="219" type="line"/>
      <point x="137" y="29" type="line"/>
      <point x="197" y="16" type="line"/>
      <point x="194" y="-105"/>
      <point x="142" y="-172"/>
      <point x="117" y="-192" type="curve"/>
      <point x="166" y="-254" type="line"/>
      <point x="298" y="-163"/>
      <point x="322" y="-24"/>
      <point x="327" y="134" type="curve"/>
      <point x="328" y="219" type="line"/>
    </contour>
  </outline>
</glyph>
<glyph name="hyphen" format="1">
  <advance width="733"/>
  <unicode hex="002D"/>
  <outline>
    <contour>
      <point x="140" y="334" type="line"/>
      <point x="594" y="334" type="line"/>
      <point x="594" y="420" type="line"/>
      <point x="140" y="420" type="line"/>
    </contour>
  </outline>
</glyph>
<glyph name="period" format="1">
  <advance width="442"/>
  <unicode hex="002E"/>
  <outline>
    <contour>
      <point x="140" y="215" type="line"/>
      <point x="140" y="0" type="line"/>
      <point x="304" y="0" type="line"/>
      <point x="304" y="215" type="line"/>
    </contour>
  </outline>
</glyph>
<glyph name="slash" format="1">
  <advance width="686"/>
  <unicode hex="002F"/>
  <outline>
    <contour>
      <point x="207" y="-35" type="line"/>
      <point x="603" y="1434" type="line"/>
      <point x="499" y="1464" type="line"/>
      <point x="102" y="-5" type="line"/>
    </contour>
  </outline>
</glyph>
<glyph name="zero" format="1">
  <advance width="1127"/>
  <unicode hex="0030"/>
  <outline>
    <contour>
      <point x="564" y="1051" type="curve" smooth="yes"/>
      <point x="815" y="1051"/>
      <point x="1001" y="883"/>
      <point x="1001" y="523" type="curve" smooth="yes"/>
      <point x="1001" y="165"/>
      <point x="828" y="-24"/>
      <point x="563" y="-24" type="curve" smooth="yes"/>
      <point x="298" y="-24"/>
      <point x="125" y="164"/>
      <point x="125" y="520" type="curve" smooth="yes"/>
      <point x="125" y="882"/>
      <point x="310" y="1051"/>
    </contour>
    <contour>
      <point x="563" y="947" type="curve" smooth="yes"/>
      <point x="329" y="947"/>
      <point x="268" y="730"/>
      <point x="268" y="523" type="curve" smooth="yes"/>
      <point x="268" y="307"/>
      <point x="329" y="81"/>
      <point x="564" y="81" type="curve" smooth="yes"/>
      <point x="797" y="81"/>
      <point x="859" y="306"/>
      <point x="859" y="521" type="curve" smooth="yes"/>
      <point x="859" y="730"/>
      <point x="795" y="947"/>
    </contour>
  </outline>
</glyph>
<glyph name="one" format="1">
  <advance width="483"/>
  <unicode hex="0031"/>
  <outline>
    <contour>
      <point x="100" y="827" type="line"/>
      <point x="219" y="886" type="line"/>
      <point x="219" y="0" type="line"/>
      <point x="344" y="0" type="line"/>
      <point x="344" y="1023" type="line"/>
      <point x="236" y="1023" type="line"/>
      <point x="59" y="932" type="line"/>
    </contour>
  </outline>
</glyph>
<glyph name="two" format="1">
  <advance width="961"/>
  <unicode hex="0032"/>
  <outline>
    <contour>
      <point x="219" y="737" type="line"/>
      <point x="278" y="875"/>
      <point x="348" y="951"/>
      <point x="488" y="951" type="curve" smooth="yes"/>
      <point x="618" y="951"/>
      <point x="719" y="892"/>
      <point x="719" y="750" type="curve" smooth="yes"/>
      <point x="719" y="427"/>
      <point x="142" y="354"/>
      <point x="142" y="0" type="curve"/>
      <point x="840" y="0" type="line"/>
      <point x="840" y="105" type="line"/>
      <point x="316" y="105" type="line"/>
      <point x="426" y="325"/>
      <point x="853" y="412"/>
      <point x="853" y="758" type="curve" smooth="yes"/>
      <point x="853" y="959"/>
      <point x="671" y="1051"/>
      <point x="492" y="1051" type="curve" smooth="yes"/>
      <point x="316" y="1051"/>
      <point x="177" y="973"/>
      <point x="114" y="782" type="curve"/>
    </contour>
  </outline>
</glyph>
<glyph name="three" format="1">
  <advance width="1053"/>
  <unicode hex="0033"/>
  <outline>
    <contour>
      <point x="426" y="476" type="line"/>
      <point x="454" y="481"/>
      <point x="483" y="484"/>
      <point x="511" y="484" type="curve" smooth="yes"/>
      <point x="700" y="484"/>
      <point x="799" y="324"/>
      <point x="799" y="164" type="curve" smooth="yes"/>
      <point x="799" y="28"/>
      <point x="704" y="-108"/>
      <point x="512" y="-108" type="curve" smooth="yes"/>
      <point x="369" y="-108"/>
      <point x="270" y="-25"/>
      <point x="220" y="133" type="curve"/>
      <point x="106" y="94" type="line"/>
      <point x="161" y="-132"/>
      <point x="342" y="-219"/>
      <point x="519" y="-219" type="curve" smooth="yes"/>
      <point x="786" y="-219"/>
      <point x="940" y="-20"/>
      <point x="940" y="170" type="curve" smooth="yes"/>
      <point x="940" y="328"/>
      <point x="857" y="482"/>
      <point x="676" y="543" type="curve"/>
      <point x="807" y="603"/>
      <point x="875" y="718"/>
      <point x="875" y="840" type="curve" smooth="yes"/>
      <point x="875" y="1005"/>
      <point x="744" y="1164"/>
      <point x="512" y="1164" type="curve" smooth="yes"/>
      <point x="354" y="1164"/>
      <point x="200" y="1088"/>
      <point x="145" y="939" type="curve"/>
      <point x="239" y="878" type="line"/>
      <point x="298" y="998"/>
      <point x="412" y="1056"/>
      <point x="518" y="1056" type="curve" smooth="yes"/>
      <point x="670" y="1056"/>
      <point x="740" y="950"/>
      <point x="740" y="843" type="curve" smooth="yes"/>
      <point x="740" y="720"/>
      <point x="658" y="595"/>
      <point x="427" y="592" type="curve"/>
    </contour>
  </outline>
</glyph>
<glyph name="four" format="1">
  <advance width="1242"/>
  <unicode hex="0034"/>
  <outline>
    <contour>
      <point x="144" y="104" type="line"/>
      <point x="676" y="1022" type="line"/>
      <point x="846" y="1022" type="line"/>
      <point x="846" y="108" type="line"/>
      <point x="1101" y="108" type="line"/>
      <point x="1101" y="0" type="line"/>
      <point x="837" y="0" type="line"/>
      <point x="837" y="-357" type="line"/>
      <point x="707" y="-357" type="line"/>
      <point x="707" y="0" type="line"/>
      <point x="144" y="0" type="line"/>
    </contour>
    <contour>
      <point x="707" y="854" type="line"/>
      <point x="295" y="108" type="line"/>
      <point x="707" y="108" type="line"/>
    </contour>
  </outline>
</glyph>
<glyph name="five" format="1">
  <advance width="1032"/>
  <unicode hex="0035"/>
  <outline>
    <contour>
      <point x="213" y="102" type="curve"/>
      <point x="106" y="66" type="line"/>
      <point x="184" y="-135"/>
      <point x="353" y="-221"/>
      <point x="523" y="-221" type="curve" smooth="yes"/>
      <point x="797" y="-221"/>
      <point x="949" y="8"/>
      <point x="949" y="227" type="curve" smooth="yes"/>
      <point x="949" y="426"/>
      <point x="823" y="617"/>
      <point x="547" y="617" type="curve" smooth="yes"/>
      <point x="478" y="617"/>
      <point x="401" y="602"/>
      <point x="323" y="566" type="curve"/>
      <point x="332" y="627"/>
      <point x="342" y="685"/>
      <point x="352" y="746" type="curve" smooth="yes"/>
      <point x="379" y="911" type="line"/>
      <point x="872" y="911" type="line"/>
      <point x="872" y="1024" type="line"/>
      <point x="262" y="1024" type="line"/>
      <point x="180" y="456" type="line"/>
      <point x="261" y="403" type="line"/>
      <point x="357" y="476"/>
      <point x="455" y="509"/>
      <point x="542" y="509" type="curve" smooth="yes"/>
      <point x="727" y="509"/>
      <point x="816" y="360"/>
      <point x="816" y="208" type="curve" smooth="yes"/>
      <point x="816" y="48"/>
      <point x="714" y="-116"/>
      <point x="518" y="-116" type="curve" smooth="yes"/>
      <point x="389" y="-116"/>
      <point x="261" y="-50"/>
    </contour>
  </outline>
</glyph>
<glyph name="six" format="1">
  <advance width="1065"/>
  <unicode hex="0036"/>
  <outline>
    <contour>
      <point x="555" y="-25" type="curve" smooth="yes"/>
      <point x="817" y="-25"/>
      <point x="958" y="196"/>
      <point x="958" y="410" type="curve" smooth="yes"/>
      <point x="958" y="674"/>
      <point x="772" y="810"/>
      <point x="554" y="810" type="curve" smooth="yes"/>
      <point x="458" y="810"/>
      <point x="360" y="778"/>
      <point x="271" y="714" type="curve"/>
      <point x="290" y="1023"/>
      <point x="404" y="1164"/>
      <point x="573" y="1164" type="curve" smooth="yes"/>
      <point x="645" y="1164"/>
      <point x="728" y="1138"/>
      <point x="818" y="1087" type="curve"/>
      <point x="857" y="1192" type="line"/>
      <point x="755" y="1248"/>
      <point x="659" y="1275"/>
      <point x="571" y="1275" type="curve" smooth="yes"/>
      <point x="303" y="1275"/>
      <point x="118" y="1024"/>
      <point x="118" y="595" type="curve" smooth="yes"/>
      <point x="118" y="215"/>
      <point x="253" y="-25"/>
    </contour>
    <contour>
      <point x="556" y="84" type="curve" smooth="yes"/>
      <point x="324" y="84"/>
      <point x="264" y="298"/>
      <point x="264" y="515" type="curve" smooth="yes"/>
      <point x="264" y="534"/>
      <point x="264" y="570"/>
      <point x="265" y="590" type="curve"/>
      <point x="350" y="653"/>
      <point x="459" y="698"/>
      <point x="553" y="698" type="curve" smooth="yes"/>
      <point x="701" y="698"/>
      <point x="819" y="620"/>
      <point x="819" y="407" type="curve" smooth="yes"/>
      <point x="819" y="202"/>
      <point x="698" y="84"/>
    </contour>
  </outline>
</glyph>
<glyph name="seven" format="1">
  <advance width="992"/>
  <unicode hex="0037"/>
  <outline>
    <contour>
      <point x="134" y="909" type="line"/>
      <point x="144" y="1023" type="line"/>
      <point x="856" y="1023" type="line"/>
      <point x="855" y="971" type="line"/>
      <point x="387" y="-235" type="line"/>
      <point x="258" y="-177" type="line"/>
      <point x="691" y="910" type="line"/>
    </contour>
  </outline>
</glyph>
<glyph name="eight" format="1">
  <advance width="1081"/>
  <unicode hex="0038"/>
  <outline>
    <contour>
      <point x="465" y="592" type="curve"/>
      <point x="635" y="565"/>
      <point x="821" y="511"/>
      <point x="821" y="315" type="curve" smooth="yes"/>
      <point x="821" y="160"/>
      <point x="674" y="77"/>
      <point x="538" y="77" type="curve" smooth="yes"/>
      <point x="360" y="77"/>
      <point x="266" y="182"/>
      <point x="266" y="306" type="curve" smooth="yes"/>
      <point x="266" y="404"/>
      <point x="332" y="513"/>
    </contour>
    <contour>
      <point x="528" y="-25" type="curve" smooth="yes"/>
      <point x="767" y="-25"/>
      <point x="957" y="143"/>
      <point x="957" y="326" type="curve" smooth="yes"/>
      <point x="957" y="433"/>
      <point x="887" y="544"/>
      <point x="717" y="630" type="curve"/>
      <point x="788" y="656"/>
      <point x="961" y="762"/>
      <point x="961" y="926" type="curve" smooth="yes"/>
      <point x="961" y="1165"/>
      <point x="763" y="1275"/>
      <point x="548" y="1275" type="curve" smooth="yes"/>
      <point x="338" y="1275"/>
      <point x="130" y="1163"/>
      <point x="130" y="922" type="curve" smooth="yes"/>
      <point x="130" y="772"/>
      <point x="263" y="677"/>
      <point x="354" y="633" type="curve"/>
      <point x="190" y="536"/>
      <point x="120" y="417"/>
      <point x="120" y="307" type="curve" smooth="yes"/>
      <point x="120" y="129"/>
      <point x="286" y="-25"/>
    </contour>
    <contour>
      <point x="606" y="665" type="curve"/>
      <point x="424" y="686"/>
      <point x="275" y="746"/>
      <point x="275" y="924" type="curve" smooth="yes"/>
      <point x="275" y="1097"/>
      <point x="413" y="1166"/>
      <point x="548" y="1166" type="curve" smooth="yes"/>
      <point x="690" y="1166"/>
      <point x="808" y="1090"/>
      <point x="808" y="930" type="curve" smooth="yes"/>
      <point x="808" y="783"/>
      <point x="688" y="707"/>
    </contour>
  </outline>
</glyph>
<glyph name="nine" format="1">
  <advance width="1065"/>
  <unicode hex="0039"/>
  <outline>
    <contour>
      <point x="510" y="1050" type="curve" smooth="yes"/>
      <point x="248" y="1050"/>
      <point x="107" y="829"/>
      <point x="107" y="615" type="curve" smooth="yes"/>
      <point x="107" y="351"/>
      <point x="298" y="215"/>
      <point x="521" y="215" type="curve" smooth="yes"/>
      <point x="614" y="215"/>
      <point x="708" y="247"/>
      <point x="794" y="311" type="curve"/>
      <point x="776" y="4"/>
      <point x="655" y="-139"/>
      <point x="485" y="-139" type="curve" smooth="yes"/>
      <point x="410" y="-139"/>
      <point x="326" y="-112"/>
      <point x="237" y="-62" type="curve"/>
      <point x="198" y="-167" type="line"/>
      <point x="302" y="-223"/>
      <point x="400" y="-250"/>
      <point x="489" y="-250" type="curve" smooth="yes"/>
      <point x="760" y="-250"/>
      <point x="947" y="6"/>
      <point x="947" y="430" type="curve" smooth="yes"/>
      <point x="947" y="810"/>
      <point x="812" y="1050"/>
    </contour>
    <contour>
      <point x="509" y="941" type="curve" smooth="yes"/>
      <point x="741" y="941"/>
      <point x="801" y="727"/>
      <point x="801" y="510" type="curve" smooth="yes"/>
      <point x="801" y="491"/>
      <point x="801" y="455"/>
      <point x="800" y="435" type="curve"/>
      <point x="718" y="372"/>
      <point x="613" y="327"/>
      <point x="522" y="327" type="curve" smooth="yes"/>
      <point x="368" y="327"/>
      <point x="246" y="405"/>
      <point x="246" y="618" type="curve" smooth="yes"/>
      <point x="246" y="823"/>
      <point x="367" y="941"/>
    </contour>
  </outline>
</glyph>
<glyph name="colon" format="1">
  <advance width="515"/>
  <unicode hex="003A"/>
  <outline>
    <contour>
      <point x="176" y="238" type="curve"/>
      <point x="171" y="170"/>
      <point x="168" y="98"/>
      <point x="168" y="20" type="curve"/>
      <point x="213" y="15"/>
      <point x="260" y="13"/>
      <point x="311" y="13" type="curve" smooth="yes"/>
      <point x="340" y="13" type="line"/>
      <point x="345" y="81"/>
      <point x="348" y="153"/>
      <point x="348" y="230" type="curve"/>
      <point x="294" y="235"/>
      <point x="237" y="238"/>
    </contour>
    <contour>
      <point x="176" y="854" type="curve"/>
      <point x="170" y="786"/>
      <point x="168" y="715"/>
      <point x="168" y="637" type="curve"/>
      <point x="222" y="632"/>
      <point x="279" y="630"/>
      <point x="340" y="630" type="curve"/>
      <point x="345" y="698"/>
      <point x="348" y="769"/>
      <point x="348" y="846" type="curve"/>
      <point x="294" y="851"/>
      <point x="238" y="854"/>
    </contour>
  </outline>
</glyph>
<glyph name="semicolon" format="1">
  <advance width="464"/>
  <unicode hex="003B"/>
  <outline>
    <contour>
      <point x="158" y="235" type="line"/>
      <point x="156" y="183"/>
      <point x="153" y="128"/>
      <point x="150" y="73" type="curve"/>
      <point x="156" y="50"/>
      <point x="206" y="57"/>
      <point x="212" y="40" type="curve"/>
      <point x="209" y="-66"/>
      <point x="160" y="-119"/>
      <point x="147" y="-126" type="curve"/>
      <point x="167" y="-200" type="line"/>
      <point x="302" y="-122"/>
      <point x="327" y="11"/>
      <point x="332" y="157" type="curve"/>
      <point x="333" y="235" type="line"/>
    </contour>
    <contour>
      <point x="156" y="846" type="curve"/>
      <point x="156" y="771"/>
      <point x="158" y="699"/>
      <point x="163" y="630" type="curve"/>
      <point x="223" y="630"/>
      <point x="281" y="632"/>
      <point x="336" y="637" type="curve"/>
      <point x="336" y="712"/>
      <point x="334" y="784"/>
      <point x="328" y="854" type="curve"/>
      <point x="268" y="854"/>
      <point x="211" y="851"/>
    </contour>
  </outline>
</glyph>
<glyph name="less" format="1">
  <advance width="1100"/>
  <unicode hex="003C"/>
  <outline>
    <contour>
      <point x="1000" y="241" type="line"/>
      <point x="213" y="525" type="line"/>
      <point x="1000" y="798" type="line"/>
      <point x="1000" y="950" type="line"/>
      <point x="51" y="595" type="line"/>
      <point x="51" y="469" type="line"/>
      <point x="51" y="469"/>
      <point x="1000" y="103"/>
      <point x="1000" y="103" type="curve"/>
    </contour>
  </outline>
</glyph>
<glyph name="equal" format="1">
  <advance width="784"/>
  <unicode hex="003D"/>
  <outline>
    <contour>
      <point x="100" y="550" type="line"/>
      <point x="650" y="550" type="line"/>
      <point x="650" y="650" type="line"/>
      <point x="100" y="650" type="line"/>
    </contour>
    <contour>
      <point x="100" y="300" type="line"/>
      <point x="650" y="300" type="line"/>
      <point x="650" y="400" type="line"/>
      <point x="100" y="400" type="line"/>
    </contour>
  </outline>
</glyph>
<glyph name="greater" format="1">
  <advance width="1100"/>
  <unicode hex="003E"/>
  <outline>
    <contour>
      <point x="51" y="812" type="line"/>
      <point x="838" y="528" type="line"/>
      <point x="51" y="255" type="line"/>
      <point x="51" y="103" type="line"/>
      <point x="1000" y="458" type="line"/>
      <point x="1000" y="584" type="line"/>
      <point x="1000" y="584"/>
      <point x="51" y="950"/>
      <point x="51" y="950" type="curve"/>
    </contour>
  </outline>
</glyph>
<glyph name="question" format="1">
  <advance width="1076"/>
  <unicode hex="003F"/>
  <outline>
    <contour>
      <point x="546" y="1380" type="curve" smooth="yes"/>
      <point x="773" y="1380"/>
      <point x="860" y="1248"/>
      <point x="860" y="1101" type="curve" smooth="yes"/>
      <point x="860" y="993"/>
      <point x="804" y="894"/>
      <point x="705" y="812" type="curve" smooth="yes"/>
      <point x="570" y="700"/>
      <point x="429" y="599"/>
      <point x="429" y="298" type="curve"/>
      <point x="552" y="298" type="line"/>
      <point x="552" y="461"/>
      <point x="606" y="554"/>
      <point x="689" y="637" type="curve"/>
      <point x="852" y="809"/>
      <point x="997" y="875"/>
      <point x="997" y="1102" type="curve" smooth="yes"/>
      <point x="997" y="1310"/>
      <point x="850" y="1491"/>
      <point x="540" y="1491" type="curve" smooth="yes"/>
      <point x="378" y="1491"/>
      <point x="186" y="1427"/>
      <point x="65" y="1254" type="curve"/>
      <point x="140" y="1177" type="line"/>
      <point x="180" y="1214"/>
      <point x="304" y="1380"/>
    </contour>
    <contour>
      <point x="406" y="215" type="line"/>
      <point x="406" y="0" type="line"/>
      <point x="570" y="0" type="line"/>
      <point x="570" y="215" type="line"/>
    </contour>
  </outline>
</glyph>
<glyph name="at" format="1">
  <advance width="1009"/>
  <unicode hex="0040"/>
  <outline>
    <contour>
      <point x="124.0" y="907.0" type="curve"/>
      <point x="230.0" y="993.0"/>
      <point x="360.0" y="1044.0"/>
      <point x="512.0" y="1044.0" type="curve" smooth="yes"/>
      <point x="754.0" y="1044.0"/>
      <point x="888.0" y="927.0"/>
      <point x="888.0" y="673.0" type="curve" smooth="yes"/>
      <point x="888.0" y="186.0" type="line" smooth="yes"/>
      <point x="888.0" y="125.0"/>
      <point x="894.0" y="59.0"/>
      <point x="898.0" y="0.0" type="curve"/>
      <point x="769.0" y="0.0" type="line"/>
      <point x="764.0" y="40.0"/>
      <point x="750.0" y="110.0"/>
      <point x="750.0" y="110.0" type="curve"/>
      <point x="641.0" y="9.0"/>
      <point x="524.0" y="-24.0"/>
      <point x="387.0" y="-24.0" type="curve" smooth="yes"/>
      <point x="226.0" y="-24.0"/>
      <point x="88.0" y="79.0"/>
      <point x="88.0" y="257.0" type="curve" smooth="yes"/>
      <point x="88.0" y="513.0"/>
      <point x="302.0" y="579.0"/>
      <point x="645.0" y="579.0" type="curve" smooth="yes"/>
      <point x="746.0" y="579.0" type="line"/>
      <point x="746.0" y="637.0" type="line" smooth="yes"/>
      <point x="746.0" y="865.305"/>
      <point x="676.143" y="935.0"/>
      <point x="504.0" y="935.0" type="curve" smooth="yes"/>
      <point x="390.0" y="935.0"/>
      <point x="265.0" y="873.0"/>
      <point x="193.0" y="812.0" type="curve"/>
      <point x="193.0" y="813.0"/>
      <point x="140.0" y="884.0"/>
    </contour>
    <contour>
      <point x="746.0" y="483.0" type="line"/>
      <point x="648.0" y="483.0" type="line" smooth="yes"/>
      <point x="429.0" y="483.0"/>
      <point x="222.0" y="450.0"/>
      <point x="222.0" y="266.0" type="curve" smooth="yes"/>
      <point x="222.0" y="153.0"/>
      <point x="291.0" y="81.0"/>
      <point x="415.0" y="81.0" type="curve" smooth="yes"/>
      <point x="536.0" y="81.0"/>
      <point x="656.0" y="143.0"/>
      <point x="746.0" y="219.0" type="curve"/>
    </contour>
    <contour>
      <point x="505.0" y="1023.0" type="move" name="top"/>
    </contour>
    <contour>
      <point x="908.0" y="10.0" type="move" name="ogonek"/>
    </contour>
  </outline>
</glyph>
<glyph name="A" format="1">
  <advance width="1204"/>
  <unicode hex="0041"/>
  <outline>
    <contour>
      <point x="19" y="0" type="line"/>
      <point x="165" y="0" type="line"/>
      <point x="293" y="399" type="line"/>
      <point x="901" y="399" type="line"/>
      <point x="1035" y="0" type="line"/>
      <point x="1185" y="0" type="line"/>
      <point x="697" y="1464" type="line"/>
      <point x="505" y="1464" type="line"/>
    </contour>
    <contour>
      <point x="596" y="1362" type="curve"/>
      <point x="623" y="1274"/>
      <point x="663" y="1147"/>
      <point x="697" y="1041" type="curve" smooth="yes"/>
      <point x="867" y="508" type="line"/>
      <point x="327" y="508" type="line"/>
      <point x="496" y="1040" type="line" smooth="yes"/>
      <point x="530" y="1148"/>
      <point x="568" y="1274"/>
    </contour>
    <contour>
      <point x="596" y="1436" type="move" name="top"/>
    </contour>
  </outline>
</glyph>
<glyph name="B" format="1">
  <advance width="1284"/>
  <unicode hex="0042"/>
  <outline>
    <contour>
      <point x="586" y="1357" type="curve" smooth="yes"/>
      <point x="285" y="1357" type="line"/>
      <point x="285" y="837" type="line"/>
      <point x="513" y="837" type="line" smooth="yes"/>
      <point x="867" y="837"/>
      <point x="1023" y="834"/>
      <point x="1023" y="1100" type="curve" smooth="yes"/>
      <point x="1023" y="1348"/>
      <point x="821" y="1357"/>
    </contour>
    <contour>
      <point x="286" y="730" type="line"/>
      <point x="286" y="107" type="line"/>
      <point x="600" y="107" type="line" smooth="yes"/>
      <point x="821" y="107"/>
      <point x="1059" y="123"/>
      <point x="1059" y="417" type="curve" smooth="yes"/>
      <point x="1059" y="742"/>
      <point x="792" y="730"/>
      <point x="526" y="730" type="curve" smooth="yes"/>
    </contour>
    <contour>
      <point x="140" y="0" type="line"/>
      <point x="140" y="1464" type="line"/>
      <point x="569" y="1464" type="line" smooth="yes"/>
      <point x="866" y="1464"/>
      <point x="1162" y="1427"/>
      <point x="1162" y="1111" type="curve" smooth="yes"/>
      <point x="1162" y="957"/>
      <point x="1090" y="832"/>
      <point x="908" y="788" type="curve"/>
      <point x="1123" y="745"/>
      <point x="1206" y="604"/>
      <point x="1206" y="413" type="curve" smooth="yes"/>
      <point x="1206" y="85"/>
      <point x="991" y="0"/>
      <point x="533" y="0" type="curve" smooth="yes"/>
    </contour>
  </outline>
</glyph>
<glyph name="C" format="1">
  <advance width="1364"/>
  <unicode hex="0043"/>
  <outline>
    <contour>
      <point x="758" y="1491" type="curve" smooth="yes"/>
      <point x="375" y="1491"/>
      <point x="119" y="1269"/>
      <point x="119" y="738" type="curve" smooth="yes"/>
      <point x="119" y="195"/>
      <point x="343" y="-25"/>
      <point x="748" y="-25" type="curve" smooth="yes"/>
      <point x="1004" y="-25"/>
      <point x="1197" y="90"/>
      <point x="1279" y="338" type="curve"/>
      <point x="1154" y="377" type="line"/>
      <point x="1092" y="205"/>
      <point x="979" y="93"/>
      <point x="756" y="93" type="curve" smooth="yes"/>
      <point x="391" y="93"/>
      <point x="272" y="311"/>
      <point x="272" y="738" type="curve" smooth="yes"/>
      <point x="272" y="1135"/>
      <point x="408" y="1374"/>
      <point x="753" y="1374" type="curve" smooth="yes"/>
      <point x="984.0" y="1374.0"/>
      <point x="1094" y="1248"/>
      <point x="1140" y="1071" type="curve"/>
      <point x="1274" y="1102" type="line"/>
      <point x="1202" y="1365"/>
      <point x="1016" y="1491"/>
    </contour>
    <contour>
      <point x="748" y="0" type="move" name="bot"/>
    </contour>
  </outline>
</glyph>
<glyph name="D" format="1">
  <advance width="1395"/>
  <unicode hex="0044"/>
  <outline>
    <contour>
      <point x="645" y="1350" type="line" smooth="yes"/>
      <point x="1029" y="1350"/>
      <point x="1136" y="1130"/>
      <point x="1136" y="737" type="curve" smooth="yes"/>
      <point x="1136" y="289"/>
      <point x="1000" y="114"/>
      <point x="589" y="114" type="curve" smooth="yes"/>
      <point x="286" y="114" type="line"/>
      <point x="286" y="1350" type="line"/>
    </contour>
    <contour>
      <point x="140" y="1464" type="line"/>
      <point x="140" y="0" type="line"/>
      <point x="637" y="0" type="line" smooth="yes"/>
      <point x="1075" y="0"/>
      <point x="1279" y="203"/>
      <point x="1279" y="738" type="curve" smooth="yes"/>
      <point x="1279" y="1280"/>
      <point x="1056" y="1464"/>
      <point x="644" y="1464" type="curve" smooth="yes"/>
    </contour>
  </outline>
</glyph>
<glyph name="E" format="1">
  <advance width="1170"/>
  <unicode hex="0045"/>
  <outline>
    <contour>
      <point x="1120" y="0" type="line"/>
      <point x="1120" y="113" type="line"/>
      <point x="286" y="113" type="line"/>
      <point x="286" y="723" type="line"/>
      <point x="1002" y="723" type="line"/>
      <point x="1002" y="838" type="line"/>
      <point x="286" y="838" type="line"/>
      <point x="286" y="1352" type="line"/>
      <point x="1109" y="1352" type="line"/>
      <point x="1109" y="1464" type="line"/>
      <point x="140" y="1464" type="line"/>
      <point x="140" y="0" type="line"/>
    </contour>
    <contour>
      <point x="623" y="1436" type="move" name="top"/>
    </contour>
  </outline>
</glyph>
<glyph name="I" format="1">
  <advance width="456"/>
  <unicode hex="0049"/>
  <outline>
    <contour>
      <point x="301" y="0" type="line"/>
      <point x="155" y="0" type="line"/>
      <point x="155" y="1464" type="line"/>
      <point x="301" y="1464" type="line"/>
    </contour>
    <contour>
      <point x="228" y="1464" type="move" name="top"/>
    </contour>
    <contour>
      <point x="410" y="10" type="move" name="ogonek"/>
    </contour>
  </outline>
</glyph>
<glyph name="J" format="1">
  <advance width="1043"/>
  <unicode hex="004A"/>
  <outline>
    <contour>
      <point x="106" y="334" type="line"/>
      <point x="149" y="117"/>
      <point x="264" y="-25"/>
      <point x="490" y="-25" type="curve" smooth="yes"/>
      <point x="803" y="-25"/>
      <point x="903" y="166"/>
      <point x="903" y="544" type="curve" smooth="yes"/>
      <point x="903" y="1464" type="line"/>
      <point x="758" y="1464" type="line"/>
      <point x="758" y="541" type="line" smooth="yes"/>
      <point x="758" y="306"/>
      <point x="742" y="95"/>
      <point x="502" y="93" type="curve" smooth="yes"/>
      <point x="340" y="93"/>
      <point x="274" y="198"/>
      <point x="236" y="369" type="curve"/>
    </contour>
    <contour>
      <point x="787" y="1464" type="move" name="top"/>
    </contour>
  </outline>
</glyph>
<glyph name="K" format="1">
  <advance width="1346"/>
  <unicode hex="004B"/>
  <outline>
    <contour>
      <point x="1172" y="1466" type="line"/>
      <point x="995" y="1466" type="line"/>
      <point x="286" y="726" type="line"/>
      <point x="286" y="1466" type="line"/>
      <point x="140" y="1466" type="line"/>
      <point x="140" y="0" type="line"/>
      <point x="286" y="0" type="line"/>
      <point x="286" y="553" type="line"/>
      <point x="554" y="828" type="line"/>
      <point x="1069" y="5" type="line"/>
      <point x="1236" y="5" type="line"/>
      <point x="657" y="926" type="line"/>
    </contour>
  </outline>
</glyph>
<glyph name="L" format="1">
  <advance width="1055"/>
  <unicode hex="004C"/>
  <outline>
    <contour>
      <point x="1033" y="0" type="line"/>
      <point x="1033" y="113" type="line"/>
      <point x="286" y="113" type="line"/>
      <point x="286" y="1464" type="line"/>
      <point x="140" y="1464" type="line"/>
      <point x="140" y="0" type="line"/>
    </contour>
  </outline>
</glyph>
<glyph name="M" format="1">
  <advance width="1629"/>
  <unicode hex="004D"/>
  <outline>
    <contour>
      <point x="140" y="0" type="line"/>
      <point x="279" y="0" type="line"/>
      <point x="279" y="1281" type="line"/>
      <point x="745" y="250" type="line"/>
      <point x="880" y="250" type="line"/>
      <point x="1355" y="1275" type="line"/>
      <point x="1355" y="0" type="line"/>
      <point x="1489" y="0" type="line"/>
      <point x="1489" y="1462" type="line"/>
      <point x="1298" y="1462" type="line"/>
      <point x="818" y="405" type="line"/>
      <point x="351" y="1463" type="line"/>
      <point x="140" y="1463" type="line"/>
    </contour>
  </outline>
</glyph>
<glyph name="N" format="1">
  <advance width="1475"/>
  <unicode hex="004E"/>
  <outline>
    <contour>
      <point x="140" y="0" type="line"/>
      <point x="273" y="0" type="line"/>
      <point x="273" y="875" type="line" smooth="yes"/>
      <point x="273" y="1009"/>
      <point x="271" y="1175"/>
      <point x="271" y="1290" type="curve"/>
      <point x="1203" y="0" type="line"/>
      <point x="1335" y="0" type="line"/>
      <point x="1335" y="1464" type="line"/>
      <point x="1206" y="1464" type="line"/>
      <point x="1206" y="614" type="line" smooth="yes"/>
      <point x="1206" y="501"/>
      <point x="1206" y="333"/>
      <point x="1206" y="221" type="curve"/>
      <point x="303" y="1464" type="line"/>
      <point x="140" y="1464" type="line"/>
    </contour>
    <contour>
      <point x="740" y="1436" type="move" name="top"/>
    </contour>
  </outline>
</glyph>
<glyph name="O" format="1">
  <advance width="1459"/>
  <unicode hex="004F"/>
  <outline>
    <contour>
      <point x="728" y="1491" type="curve" smooth="yes"/>
      <point x="349" y="1491"/>
      <point x="119" y="1282"/>
      <point x="119" y="740" type="curve" smooth="yes"/>
      <point x="119" y="186"/>
      <point x="344" y="-25"/>
      <point x="727" y="-25" type="curve" smooth="yes"/>
      <point x="1118" y="-25"/>
      <point x="1340" y="193"/>
      <point x="1340" y="741" type="curve" smooth="yes"/>
      <point x="1340" y="1281"/>
      <point x="1108" y="1491"/>
    </contour>
    <contour>
      <point x="727" y="1374" type="curve" smooth="yes"/>
      <point x="1081" y="1374"/>
      <point x="1185" y="1130"/>
      <point x="1185" y="740" type="curve" smooth="yes"/>
      <point x="1185" y="298"/>
      <point x="1067" y="93"/>
      <point x="728" y="93" type="curve" smooth="yes"/>
      <point x="390" y="93"/>
      <point x="272" y="302"/>
      <point x="272" y="741" type="curve" smooth="yes"/>
      <point x="272" y="1130"/>
      <point x="375" y="1374"/>
    </contour>
    <contour>
      <point x="727" y="1436" type="move" name="top"/>
    </contour>
  </outline>
</glyph>
<glyph name="P" format="1">
  <advance width="1246"/>
  <unicode hex="0050"/>
  <outline>
    <contour>
      <point x="140" y="0" type="line"/>
      <point x="290" y="0" type="line"/>
      <point x="290" y="635" type="line"/>
      <point x="512" y="635" type="line" smooth="yes"/>
      <point x="1024" y="635"/>
      <point x="1223" y="724"/>
      <point x="1223" y="1063" type="curve" smooth="yes"/>
      <point x="1223" y="1360"/>
      <point x="1047" y="1464"/>
      <point x="571" y="1464" type="curve" smooth="yes"/>
      <point x="140" y="1464" type="line"/>
    </contour>
    <contour>
      <point x="296" y="1350" type="line"/>
      <point x="548" y="1350" type="line" smooth="yes"/>
      <point x="931" y="1350"/>
      <point x="1075" y="1304"/>
      <point x="1075" y="1055" type="curve" smooth="yes"/>
      <point x="1075" y="808"/>
      <point x="931" y="750"/>
      <point x="568" y="749" type="curve" smooth="yes"/>
      <point x="296" y="748" type="line"/>
    </contour>
  </outline>
</glyph>
<glyph name="Q" format="1">
  <advance width="1458.72941326"/>
  <unicode hex="0051"/>
  <outline>
    <contour>
      <point x="1305" y="-295" type="line"/>
      <point x="1381" y="-210" type="line"/>
      <point x="1093" y="118" type="line"/>
      <point x="1017" y="33" type="line"/>
    </contour>
    <component base="O" xOffset="-0.140271929624"/>
  </outline>
</glyph>
<glyph name="R" format="1">
  <advance width="1320"/>
  <unicode hex="0052"/>
  <outline>
    <contour>
      <point x="1226" y="1075" type="curve" smooth="yes"/>
      <point x="1226" y="1337"/>
      <point x="1032" y="1464"/>
      <point x="645" y="1464" type="curve"/>
      <point x="140" y="1462" type="line"/>
      <point x="140" y="0" type="line"/>
      <point x="290" y="0" type="line"/>
      <point x="290" y="673" type="line"/>
      <point x="751" y="673" type="line"/>
      <point x="1083" y="-3" type="line"/>
      <point x="1239" y="-3" type="line"/>
      <point x="1104" y="280" type="line"/>
      <point x="1035" y="420"/>
      <point x="944" y="572"/>
      <point x="903" y="697" type="curve"/>
      <point x="1111" y="758"/>
      <point x="1226" y="877"/>
    </contour>
    <contour>
      <point x="296" y="1356" type="line"/>
      <point x="629" y="1356" type="line" smooth="yes"/>
      <point x="830" y="1356"/>
      <point x="1070" y="1331"/>
      <point x="1070" y="1070" type="curve" smooth="yes"/>
      <point x="1070" y="816"/>
      <point x="844" y="786"/>
      <point x="630" y="786" type="curve" smooth="yes"/>
      <point x="296" y="786" type="line"/>
    </contour>
    <contour>
      <point x="654" y="0" type="move" name="bot"/>
    </contour>
  </outline>
</glyph>
<glyph name="S" format="1">
  <advance width="1322"/>
  <unicode hex="0053"/>
  <outline>
    <contour>
      <point x="672" y="1482" type="curve" smooth="yes"/>
      <point x="426" y="1482"/>
      <point x="185" y="1369"/>
      <point x="185" y="1116" type="curve" smooth="yes"/>
      <point x="185" y="877"/>
      <point x="409" y="804"/>
      <point x="619" y="731" type="curve" smooth="yes"/>
      <point x="903" y="633"/>
      <point x="1059" y="584"/>
      <point x="1059" y="388" type="curve" smooth="yes"/>
      <point x="1059" y="167"/>
      <point x="857" y="101"/>
      <point x="678" y="101" type="curve" smooth="yes"/>
      <point x="431" y="101"/>
      <point x="282" y="205"/>
      <point x="222" y="426" type="curve"/>
      <point x="99" y="373" type="line"/>
      <point x="155" y="69"/>
      <point x="444" y="-25"/>
      <point x="669" y="-25" type="curve" smooth="yes"/>
      <point x="995" y="-25"/>
      <point x="1212" y="126"/>
      <point x="1212" y="393" type="curve" smooth="yes"/>
      <point x="1212" y="646"/>
      <point x="1036" y="726"/>
      <point x="767" y="829" type="curve" smooth="yes"/>
      <point x="594" y="895"/>
      <point x="338" y="931"/>
      <point x="338" y="1128" type="curve" smooth="yes"/>
      <point x="338" y="1298"/>
      <point x="500" y="1364"/>
      <point x="693" y="1364" type="curve" smooth="yes"/>
      <point x="851" y="1364"/>
      <point x="991" y="1286"/>
      <point x="1071" y="1144" type="curve"/>
      <point x="1179" y="1224" type="line"/>
      <point x="1061" y="1404"/>
      <point x="904" y="1482"/>
    </contour>
  </outline>
</glyph>
<glyph name="T" format="1">
  <advance width="1131"/>
  <unicode hex="0054"/>
  <outline>
    <contour>
      <point x="15" y="1352" type="line"/>
      <point x="489" y="1352" type="line"/>
      <point x="489" y="0" type="line"/>
      <point x="642" y="0" type="line"/>
      <point x="642" y="1352" type="line"/>
      <point x="1116" y="1352" type="line"/>
      <point x="1116" y="1465" type="line"/>
      <point x="15" y="1465" type="line"/>
    </contour>
  </outline>
</glyph>
<glyph name="U" format="1">
  <advance width="1346"/>
  <unicode hex="0055"/>
  <outline>
    <contour>
      <point x="123" y="574" type="line" smooth="yes"/>
      <point x="123" y="152"/>
      <point x="308" y="-25"/>
      <point x="670" y="-25" type="curve" smooth="yes"/>
      <point x="1046" y="-25"/>
      <point x="1223" y="161"/>
      <point x="1223" y="581" type="curve" smooth="yes"/>
      <point x="1223" y="1464" type="line"/>
      <point x="1066" y="1464" type="line"/>
      <point x="1066" y="598" type="line" smooth="yes"/>
      <point x="1066" y="306"/>
      <point x="1002" y="98"/>
      <point x="676" y="98" type="curve" smooth="yes"/>
      <point x="348" y="98"/>
      <point x="283" y="306"/>
      <point x="283" y="598" type="curve" smooth="yes"/>
      <point x="283" y="1464" type="line"/>
      <point x="123" y="1464" type="line"/>
    </contour>
    <contour>
      <point x="670" y="0" type="move" name="bot"/>
    </contour>
    <contour>
      <point x="670" y="1465" type="move" name="top"/>
    </contour>
  </outline>
</glyph>
<glyph name="V" format="1">
  <advance width="1178"/>
  <unicode hex="0056"/>
  <outline>
    <contour>
      <point x="510" y="0" type="line"/>
      <point x="648" y="0" type="line"/>
      <point x="1159" y="1464" type="line"/>
      <point x="1011" y="1464" type="line"/>
      <point x="718" y="598" type="line" smooth="yes"/>
      <point x="675" y="471"/>
      <point x="630" y="345"/>
      <point x="588" y="218" type="curve"/>
      <point x="547" y="344"/>
      <point x="504" y="471"/>
      <point x="462" y="598" type="curve" smooth="yes"/>
      <point x="174" y="1464" type="line"/>
      <point x="19" y="1464" type="line"/>
    </contour>
  </outline>
</glyph>
<glyph name="W" format="1">
  <advance width="1813"/>
  <unicode hex="0057"/>
  <outline>
    <contour>
      <point x="435" y="0" type="line"/>
      <point x="548" y="0" type="line"/>
      <point x="848" y="974"/>
      <point x="883" y="1080"/>
      <point x="915" y="1187" type="curve"/>
      <point x="947" y="1069"/>
      <point x="984" y="942"/>
      <point x="1252" y="0" type="curve"/>
      <point x="1378" y="0" type="line"/>
      <point x="1793" y="1462" type="line"/>
      <point x="1654" y="1461" type="line"/>
      <point x="1540" y="1054"/>
      <point x="1434" y="619"/>
      <point x="1324" y="217" type="curve"/>
      <point x="1214" y="626"/>
      <point x="1088" y="1054"/>
      <point x="977" y="1462" type="curve"/>
      <point x="873" y="1462" type="line"/>
      <point x="604" y="577"/>
      <point x="546" y="395"/>
      <point x="498" y="234" type="curve"/>
      <point x="454" y="394"/>
      <point x="418" y="576"/>
      <point x="172" y="1462" type="curve"/>
      <point x="20" y="1462" type="line"/>
    </contour>
  </outline>
</glyph>
<glyph name="X" format="1">
  <advance width="1269"/>
  <unicode hex="0058"/>
  <outline>
    <contour>
      <point x="638" y="889" type="line"/>
      <point x="238" y="1464" type="line"/>
      <point x="63" y="1464" type="line"/>
      <point x="552" y="763" type="line"/>
      <point x="18" y="0" type="line"/>
      <point x="185" y="0" type="line"/>
      <point x="632" y="641" type="line"/>
      <point x="1078" y="0" type="line"/>
      <point x="1251" y="0" type="line"/>
      <point x="718" y="767" type="line"/>
      <point x="1207" y="1464" type="line"/>
      <point x="1041" y="1464" type="line"/>
    </contour>
  </outline>
</glyph>
<glyph name="Y" format="1">
  <advance width="1180"/>
  <unicode hex="0059"/>
  <outline>
    <contour>
      <point x="517" y="549" type="line"/>
      <point x="517" y="0" type="line"/>
      <point x="663" y="0" type="line"/>
      <point x="663" y="548" type="line"/>
      <point x="1175" y="1464" type="line"/>
      <point x="1018" y="1464" type="line"/>
      <point x="591" y="682" type="line"/>
      <point x="163" y="1464" type="line"/>
      <point x="5" y="1464" type="line"/>
    </contour>
  </outline>
</glyph>
<glyph name="Z" format="1">
  <advance width="1234"/>
  <unicode hex="005A"/>
  <outline>
    <contour>
      <point x="156" y="1356" type="line"/>
      <point x="993" y="1356" type="line"/>
      <point x="73" y="98" type="line"/>
      <point x="73" y="0" type="line"/>
      <point x="1182" y="0" type="line"/>
      <point x="1189" y="107" type="line"/>
      <point x="254" y="107" type="line"/>
      <point x="1184" y="1383" type="line"/>
      <point x="1184" y="1464" type="line"/>
      <point x="156" y="1464" type="line"/>
    </contour>
  </outline>
</glyph>
<glyph name="bracketleft" format="1">
  <advance width="659"/>
  <unicode hex="005B"/>
  <outline>
    <contour>
      <point x="140" y="-52" type="line"/>
      <point x="598" y="-52" type="line"/>
      <point x="598" y="55" type="line"/>
      <point x="285" y="55" type="line"/>
      <point x="285" y="1374" type="line"/>
      <point x="598" y="1374" type="line"/>
      <point x="598" y="1480" type="line"/>
      <point x="140" y="1480" type="line"/>
    </contour>
  </outline>
</glyph>
<glyph name="backslash" format="1">
  <advance width="661"/>
  <unicode hex="005C"/>
  <outline>
    <contour>
      <point x="601" y="-5" type="line"/>
      <point x="204" y="1464" type="line"/>
      <point x="59" y="1464" type="line"/>
      <point x="456" y="-5" type="line"/>
    </contour>
  </outline>
</glyph>
<glyph name="bracketright" format="1">
  <advance width="658"/>
  <unicode hex="005D"/>
  <outline>
    <contour>
      <point x="62" y="1374" type="line"/>
      <point x="374" y="1374" type="line"/>
      <point x="374" y="55" type="line"/>
      <point x="62" y="55" type="line"/>
      <point x="62" y="-52" type="line"/>
      <point x="519" y="-52" type="line"/>
      <point x="519" y="1480" type="line"/>
      <point x="62" y="1480" type="line"/>
    </contour>
  </outline>
</glyph>
<glyph name="asciicircum" format="1">
  <advance width="1100"/>
  <unicode hex="005E"/>
  <outline>
    <contour>
      <point x="240" y="100" type="line"/>
      <point x="524" y="837" type="line"/>
      <point x="797" y="100" type="line"/>
      <point x="949" y="100" type="line"/>
      <point x="594" y="999" type="line"/>
      <point x="468" y="999" type="line"/>
      <point x="468" y="999"/>
      <point x="102" y="100"/>
      <point x="102" y="100" type="curve"/>
    </contour>
  </outline>
</glyph>
<glyph name="a" format="1">
  <advance width="1040"/>
  <unicode hex="0061"/>
  <outline>
    <contour>
      <point x="376" y="1044"/>
      <point x="246" y="993"/>
      <point x="140" y="907" type="curve"/>
      <point x="156" y="884"/>
      <point x="209" y="813"/>
      <point x="209" y="812" type="curve"/>
      <point x="281" y="873"/>
      <point x="406" y="935"/>
      <point x="520" y="935" type="curve" smooth="yes"/>
      <point x="692.142382928" y="935.0"/>
      <point x="762.0" y="865.305027706"/>
      <point x="762" y="637" type="curve" smooth="yes"/>
      <point x="762" y="636"/>
      <point x="762" y="595"/>
      <point x="762" y="579" type="curve"/>
      <point x="745" y="579"/>
      <point x="678" y="579"/>
      <point x="661" y="579" type="curve" smooth="yes"/>
      <point x="318" y="579"/>
      <point x="104" y="513"/>
      <point x="104" y="257" type="curve" smooth="yes"/>
      <point x="104" y="79"/>
      <point x="242" y="-24"/>
      <point x="403" y="-24" type="curve" smooth="yes"/>
      <point x="540" y="-24"/>
      <point x="657" y="9"/>
      <point x="766" y="110" type="curve"/>
      <point x="766" y="110"/>
      <point x="780" y="40"/>
      <point x="785" y="0" type="curve"/>
      <point x="785" y="0"/>
      <point x="914" y="0"/>
      <point x="914" y="0" type="curve"/>
      <point x="910" y="59"/>
      <point x="905" y="125"/>
      <point x="905" y="186" type="curve" smooth="yes"/>
      <point x="905" y="673" type="line" smooth="yes"/>
      <point x="905" y="927"/>
      <point x="770" y="1044"/>
      <point x="528" y="1044" type="curve" smooth="yes"/>
    </contour>
    <contour>
      <point x="762" y="483" type="line"/>
      <point x="762" y="483"/>
      <point x="762" y="219"/>
      <point x="762" y="219" type="curve"/>
      <point x="672" y="143"/>
      <point x="552" y="81"/>
      <point x="431" y="81" type="curve" smooth="yes"/>
      <point x="307" y="81"/>
      <point x="238" y="153"/>
      <point x="238" y="266" type="curve" smooth="yes"/>
      <point x="238" y="450"/>
      <point x="445" y="483"/>
      <point x="664" y="483" type="curve" smooth="yes"/>
    </contour>
    <contour>
      <point x="529" y="1023" type="move" name="top"/>
    </contour>
  </outline>
</glyph>
<glyph name="b" format="1">
  <advance width="1115"/>
  <unicode hex="0062"/>
  <outline>
    <contour>
      <point x="140" y="0" type="line"/>
      <point x="253" y="0" type="line"/>
      <point x="272" y="161" type="line"/>
      <point x="323" y="39"/>
      <point x="451" y="-24"/>
      <point x="595" y="-24" type="curve" smooth="yes"/>
      <point x="858" y="-24"/>
      <point x="997" y="191"/>
      <point x="997" y="502" type="curve" smooth="yes"/>
      <point x="997" y="840"/>
      <point x="852" y="1044"/>
      <point x="604" y="1044" type="curve" smooth="yes"/>
      <point x="464" y="1044"/>
      <point x="342" y="985"/>
      <point x="283" y="865" type="curve"/>
      <point x="283" y="940"/>
      <point x="283" y="1025"/>
      <point x="283" y="1102" type="curve" smooth="yes"/>
      <point x="283" y="1493" type="line"/>
      <point x="140" y="1493" type="line"/>
    </contour>
    <contour>
      <point x="585" y="940" type="curve" smooth="yes"/>
      <point x="761" y="940"/>
      <point x="852" y="784"/>
      <point x="852" y="499" type="curve" smooth="yes"/>
      <point x="852" y="262"/>
      <point x="759" y="81"/>
      <point x="578" y="81" type="curve" smooth="yes"/>
      <point x="452" y="81"/>
      <point x="283" y="131"/>
      <point x="283" y="488" type="curve" smooth="yes"/>
      <point x="283" y="712"/>
      <point x="335" y="940"/>
    </contour>
  </outline>
</glyph>
<glyph name="c" format="1">
  <advance width="1043"/>
  <unicode hex="0063"/>
  <outline>
    <contour>
      <point x="119" y="509" type="curve" smooth="yes"/>
      <point x="119" y="198"/>
      <point x="266" y="-24"/>
      <point x="558" y="-24" type="curve" smooth="yes"/>
      <point x="717" y="-24"/>
      <point x="881" y="64"/>
      <point x="931" y="289" type="curve"/>
      <point x="822" y="323" type="line"/>
      <point x="776" y="167"/>
      <point x="694" y="81"/>
      <point x="561" y="81" type="curve" smooth="yes"/>
      <point x="353" y="81"/>
      <point x="262" y="260"/>
      <point x="262" y="512" type="curve" smooth="yes"/>
      <point x="262" y="767"/>
      <point x="355" y="940"/>
      <point x="567" y="940" type="curve" smooth="yes"/>
      <point x="697" y="940"/>
      <point x="773" y="862"/>
      <point x="815" y="701" type="curve"/>
      <point x="934" y="733" type="line"/>
      <point x="878" y="975"/>
      <point x="715" y="1044"/>
      <point x="561" y="1044" type="curve" smooth="yes"/>
      <point x="265" y="1044"/>
      <point x="119" y="817"/>
    </contour>
    <contour>
      <point x="558" y="0" type="move" name="bot"/>
    </contour>
    <contour>
      <point x="554" y="1024" type="move" name="top"/>
    </contour>
  </outline>
</glyph>
<glyph name="d" format="1">
  <advance width="1056"/>
  <unicode hex="0064"/>
  <outline>
    <contour>
      <point x="76" y="500" type="curve" smooth="yes"/>
      <point x="76" y="188"/>
      <point x="219" y="-24"/>
      <point x="468" y="-24" type="curve" smooth="yes"/>
      <point x="609" y="-24"/>
      <point x="732" y="51"/>
      <point x="784" y="172" type="curve"/>
      <point x="803" y="0" type="line"/>
      <point x="917" y="0" type="line"/>
      <point x="917" y="1474" type="line"/>
      <point x="774" y="1474" type="line"/>
      <point x="774" y="863" type="line"/>
      <point x="728" y="986"/>
      <point x="609" y="1044"/>
      <point x="464" y="1044" type="curve" smooth="yes"/>
      <point x="210" y="1044"/>
      <point x="76" y="832"/>
    </contour>
    <contour>
      <point x="486" y="81" type="curve" smooth="yes"/>
      <point x="316" y="81"/>
      <point x="222" y="262"/>
      <point x="222" y="499" type="curve" smooth="yes"/>
      <point x="222" y="765"/>
      <point x="312" y="940"/>
      <point x="484" y="940" type="curve" smooth="yes"/>
      <point x="711" y="940"/>
      <point x="774" y="754"/>
      <point x="774" y="519" type="curve" smooth="yes"/>
      <point x="774" y="481" type="line" smooth="yes"/>
      <point x="774" y="127"/>
      <point x="616" y="81"/>
    </contour>
  </outline>
</glyph>
<glyph name="e" format="1">
  <advance width="1076"/>
  <unicode hex="0065"/>
  <outline>
    <contour>
      <point x="274" y="1044"/>
      <point x="117" y="823"/>
      <point x="117" y="512" type="curve" smooth="yes"/>
      <point x="117" y="231"/>
      <point x="247" y="-24"/>
      <point x="563" y="-24" type="curve" smooth="yes"/>
      <point x="734.011695506" y="-24.0"/>
      <point x="893.431991971" y="82.727967885"/>
      <point x="942" y="277" type="curve"/>
      <point x="827" y="318" type="line"/>
      <point x="796.810134164" y="200.259523239"/>
      <point x="723.006309211" y="81.0"/>
      <point x="564" y="81" type="curve" smooth="yes"/>
      <point x="344" y="81"/>
      <point x="261" y="277"/>
      <point x="261" y="498" type="curve"/>
      <point x="960" y="498" type="line"/>
      <point x="962" y="515"/>
      <point x="963" y="549"/>
      <point x="963" y="558" type="curve" smooth="yes"/>
      <point x="963" y="830"/>
      <point x="841" y="1044"/>
      <point x="556" y="1044" type="curve" smooth="yes"/>
    </contour>
    <contour>
      <point x="262" y="592" type="line"/>
      <point x="272" y="774"/>
      <point x="368" y="941"/>
      <point x="552" y="941" type="curve" smooth="yes"/>
      <point x="743" y="941"/>
      <point x="825" y="802"/>
      <point x="826" y="592" type="curve"/>
    </contour>
    <contour>
      <point x="555" y="1023" type="move" name="top"/>
    </contour>
  </outline>
</glyph>
<glyph name="g" format="1">
  <advance width="1078"/>
  <unicode hex="0067"/>
  <outline>
    <contour>
      <point x="820" y="543" type="line" smooth="yes"/>
      <point x="820" y="886"/>
      <point x="634" y="940"/>
      <point x="520" y="940" type="curve" smooth="yes"/>
      <point x="317" y="940"/>
      <point x="231" y="737"/>
      <point x="231" y="530" type="curve" smooth="yes"/>
      <point x="231" y="239"/>
      <point x="347" y="81"/>
      <point x="515" y="81" type="curve" smooth="yes"/>
      <point x="649" y="81"/>
      <point x="820" y="148"/>
      <point x="820" y="509" type="curve" smooth="yes"/>
    </contour>
    <contour>
      <point x="511" y="-429" type="curve" smooth="yes"/>
      <point x="405" y="-429"/>
      <point x="223" y="-382"/>
      <point x="144" y="-192" type="curve"/>
      <point x="250" y="-149" type="line"/>
      <point x="307" y="-260"/>
      <point x="392" y="-320"/>
      <point x="530" y="-320" type="curve" smooth="yes"/>
      <point x="725" y="-320"/>
      <point x="820" y="-187"/>
      <point x="820" y="28" type="curve" smooth="yes"/>
      <point x="820" y="130" type="line"/>
      <point x="751" y="39"/>
      <point x="655" y="-24"/>
      <point x="510" y="-24" type="curve" smooth="yes"/>
      <point x="242" y="-24"/>
      <point x="96" y="205"/>
      <point x="96" y="526" type="curve" smooth="yes"/>
      <point x="96" y="823"/>
      <point x="236" y="1044"/>
      <point x="504" y="1044" type="curve" smooth="yes"/>
      <point x="636" y="1044"/>
      <point x="750" y="988"/>
      <point x="831" y="891" type="curve"/>
      <point x="839" y="1023" type="line"/>
      <point x="953" y="1023" type="line"/>
      <point x="953" y="28" type="line" smooth="yes"/>
      <point x="953" y="-230"/>
      <point x="813" y="-429"/>
    </contour>
    <contour>
      <point x="539" y="1023" type="move" name="top"/>
    </contour>
  </outline>
</glyph>
<glyph name="i" format="1">
  <advance width="434"/>
  <unicode hex="0069"/>
  <outline>
    <contour>
      <point x="145" y="1242" type="line"/>
      <point x="286" y="1242" type="line"/>
      <point x="286" y="1421" type="line"/>
      <point x="145" y="1421" type="line"/>
    </contour>
    <contour>
      <point x="147" y="0" type="line"/>
      <point x="289" y="0" type="line"/>
      <point x="289" y="1023" type="line"/>
      <point x="147" y="1023" type="line"/>
    </contour>
  </outline>
</glyph>
<glyph name="j" format="1">
  <advance width="532"/>
  <unicode hex="006A"/>
  <outline>
    <contour>
      <point x="249" y="-87" type="line" smooth="yes"/>
      <point x="249" y="-178"/>
      <point x="212" y="-204"/>
      <point x="153" y="-204" type="curve" smooth="yes"/>
      <point x="120" y="-204"/>
      <point x="82" y="-189"/>
      <point x="44" y="-175" type="curve"/>
      <point x="20" y="-286" type="line"/>
      <point x="68" y="-314"/>
      <point x="121" y="-325"/>
      <point x="172" y="-325" type="curve" smooth="yes"/>
      <point x="364" y="-325"/>
      <point x="391" y="-217"/>
      <point x="391" y="-12" type="curve" smooth="yes"/>
      <point x="391" y="1023" type="line"/>
      <point x="249" y="1023" type="line"/>
    </contour>
    <contour>
      <point x="251" y="1242" type="line"/>
      <point x="392" y="1242" type="line"/>
      <point x="392" y="1421" type="line"/>
      <point x="251" y="1421" type="line"/>
    </contour>
  </outline>
</glyph>
<glyph name="k" format="1">
  <advance width="1054"/>
  <unicode hex="006B"/>
  <outline>
    <contour>
      <point x="807" y="1023" type="line"/>
      <point x="281" y="516" type="line"/>
      <point x="281" y="1477" type="line"/>
      <point x="140" y="1477" type="line"/>
      <point x="140" y="0" type="line"/>
      <point x="282" y="0" type="line"/>
      <point x="282" y="369" type="line"/>
      <point x="495" y="570" type="line"/>
      <point x="868" y="0" type="line"/>
      <point x="1028" y="0" type="line"/>
      <point x="588" y="656" type="line"/>
      <point x="969" y="1023" type="line"/>
    </contour>
    <contour>
      <point x="528" y="0" type="move" name="bot"/>
    </contour>
  </outline>
</glyph>
<glyph name="l" format="1">
  <advance width="421"/>
  <unicode hex="006C"/>
  <outline>
    <contour>
      <point x="140" y="-1" type="line"/>
      <point x="283" y="-1" type="line"/>
      <point x="283" y="1474" type="line"/>
      <point x="140" y="1474" type="line"/>
    </contour>
  </outline>
</glyph>
<glyph name="m" format="1">
  <advance width="1692"/>
  <unicode hex="006D"/>
  <outline>
    <contour>
      <point x="577" y="940" type="curve" smooth="yes"/>
      <point x="731" y="940"/>
      <point x="775" y="805"/>
      <point x="775" y="607" type="curve" smooth="yes"/>
      <point x="775" y="0" type="line"/>
      <point x="918" y="0" type="line"/>
      <point x="918" y="591" type="line" smooth="yes"/>
      <point x="918" y="761"/>
      <point x="1037" y="940"/>
      <point x="1213" y="940" type="curve" smooth="yes"/>
      <point x="1370" y="940"/>
      <point x="1413" y="802"/>
      <point x="1413" y="607" type="curve" smooth="yes"/>
      <point x="1413" y="0" type="line"/>
      <point x="1556" y="0" type="line"/>
      <point x="1556" y="576" type="line" smooth="yes"/>
      <point x="1556" y="789"/>
      <point x="1529" y="1044"/>
      <point x="1250" y="1044" type="curve" smooth="yes"/>
      <point x="1127" y="1044"/>
      <point x="967" y="987"/>
      <point x="893" y="832" type="curve"/>
      <point x="857" y="961"/>
      <point x="764" y="1044"/>
      <point x="607" y="1044" type="curve" smooth="yes"/>
      <point x="489" y="1044"/>
      <point x="361" y="998"/>
      <point x="281" y="861" type="curve"/>
      <point x="277" y="1023" type="line"/>
      <point x="140" y="1023" type="line"/>
      <point x="140" y="0" type="line"/>
      <point x="282" y="0" type="line"/>
      <point x="282" y="583" type="line" smooth="yes"/>
      <point x="282" y="757"/>
      <point x="395" y="940"/>
    </contour>
  </outline>
</glyph>
<glyph name="n" format="1">
  <advance width="1117"/>
  <unicode hex="006E"/>
  <outline>
    <contour>
      <point x="140.0" y="0.0" type="line"/>
      <point x="283.0" y="0.0" type="line"/>
      <point x="283.0" y="496.0" type="line" smooth="yes"/>
      <point x="283.0" y="627.0"/>
      <point x="292.0" y="930.0"/>
      <point x="617.0" y="930.0" type="curve" smooth="yes"/>
      <point x="796.0" y="930.0"/>
      <point x="848.0" y="806.0"/>
      <point x="848.0" y="603.0" type="curve" smooth="yes"/>
      <point x="848.0" y="0.0" type="line"/>
      <point x="991.0" y="0.0" type="line"/>
      <point x="991.0" y="584.0" type="line" smooth="yes"/>
      <point x="991.0" y="790.0"/>
      <point x="960.0" y="1044.0"/>
      <point x="637.0" y="1044.0" type="curve" smooth="yes"/>
      <point x="519.0" y="1044.0"/>
      <point x="398.0" y="1006.0"/>
      <point x="308.0" y="898.0" type="curve" smooth="yes"/>
      <point x="299.0" y="886.0"/>
      <point x="285" y="850"/>
      <point x="279" y="830" type="curve"/>
      <point x="279.0" y="829.0"/>
      <point x="279" y="1023"/>
      <point x="279" y="1023" type="curve"/>
      <point x="140.0" y="1023.0" type="line"/>
    </contour>
    <contour>
      <point x="539.0" y="1024.0" type="move" name="top"/>
    </contour>
  </outline>
</glyph>
<glyph name="o" format="1">
  <advance width="1114"/>
  <unicode hex="006F"/>
  <outline>
    <contour>
      <point x="558" y="1024" type="move" name="top"/>
    </contour>
    <contour>
      <point x="558" y="1044" type="curve" smooth="yes"/>
      <point x="304" y="1044"/>
      <point x="119" y="872"/>
      <point x="119" y="510" type="curve" smooth="yes"/>
      <point x="119" y="161"/>
      <point x="292" y="-24"/>
      <point x="557" y="-24" type="curve" smooth="yes"/>
      <point x="822" y="-24"/>
      <point x="995" y="162"/>
      <point x="995" y="513" type="curve" smooth="yes"/>
      <point x="995" y="873"/>
      <point x="809" y="1044"/>
    </contour>
    <contour>
      <point x="557" y="940" type="curve" smooth="yes"/>
      <point x="789" y="940"/>
      <point x="853" y="720"/>
      <point x="853" y="511" type="curve" smooth="yes"/>
      <point x="853" y="301"/>
      <point x="791" y="81"/>
      <point x="558" y="81" type="curve" smooth="yes"/>
      <point x="323" y="81"/>
      <point x="262" y="302"/>
      <point x="262" y="513" type="curve" smooth="yes"/>
      <point x="262" y="720"/>
      <point x="323" y="940"/>
    </contour>
  </outline>
</glyph>
<glyph name="p" format="1">
  <advance width="1095"/>
  <unicode hex="0070"/>
  <outline>
    <contour>
      <point x="272" y="858" type="curve"/>
      <point x="262" y="1023" type="line"/>
      <point x="140" y="1023" type="line"/>
      <point x="140" y="-350" type="line"/>
      <point x="282" y="-350" type="line"/>
      <point x="282" y="21" type="line" smooth="yes"/>
      <point x="282" y="65"/>
      <point x="282" y="110"/>
      <point x="281" y="154" type="curve"/>
      <point x="340" y="40"/>
      <point x="450" y="-24"/>
      <point x="589" y="-24" type="curve"/>
      <point x="855" y="-21"/>
      <point x="976" y="217"/>
      <point x="976" y="520" type="curve" smooth="yes"/>
      <point x="976" y="812"/>
      <point x="857" y="1044"/>
      <point x="582" y="1044" type="curve" smooth="yes"/>
      <point x="433" y="1044"/>
      <point x="335" y="976"/>
    </contour>
    <contour>
      <point x="567" y="940" type="curve" smooth="yes"/>
      <point x="735" y="940"/>
      <point x="831" y="767"/>
      <point x="831" y="521" type="curve" smooth="yes"/>
      <point x="831" y="243"/>
      <point x="733" y="81"/>
      <point x="568" y="81" type="curve" smooth="yes"/>
      <point x="336" y="81"/>
      <point x="282" y="294"/>
      <point x="282" y="519" type="curve" smooth="yes"/>
      <point x="282" y="737"/>
      <point x="315" y="940"/>
    </contour>
  </outline>
</glyph>
<glyph name="q" format="1">
  <advance width="1053"/>
  <unicode hex="0071"/>
  <outline>
    <contour>
      <point x="465" y="1044" type="curve" smooth="yes"/>
      <point x="203" y="1044"/>
      <point x="79" y="809"/>
      <point x="79" y="518" type="curve" smooth="yes"/>
      <point x="79" y="212"/>
      <point x="203" y="-24"/>
      <point x="463" y="-24" type="curve" smooth="yes"/>
      <point x="604" y="-24"/>
      <point x="713" y="39"/>
      <point x="770" y="155" type="curve"/>
      <point x="770" y="112"/>
      <point x="770" y="56"/>
      <point x="770" y="12" type="curve" smooth="yes"/>
      <point x="770" y="-350" type="line"/>
      <point x="913" y="-350" type="line"/>
      <point x="913" y="1023" type="line"/>
      <point x="796" y="1023" type="line"/>
      <point x="781" y="862" type="line"/>
      <point x="721" y="997"/>
      <point x="601" y="1044"/>
    </contour>
    <contour>
      <point x="486" y="940" type="curve" smooth="yes"/>
      <point x="727" y="940"/>
      <point x="770" y="736"/>
      <point x="770" y="501" type="curve" smooth="yes"/>
      <point x="770" y="294"/>
      <point x="723" y="81"/>
      <point x="482" y="81" type="curve" smooth="yes"/>
      <point x="320" y="81"/>
      <point x="224" y="244"/>
      <point x="224" y="522" type="curve" smooth="yes"/>
      <point x="224" y="763"/>
      <point x="318" y="940"/>
    </contour>
  </outline>
</glyph>
<glyph name="r" format="1">
  <advance width="626"/>
  <unicode hex="0072"/>
  <outline>
    <contour>
      <point x="277" y="1023" type="line"/>
      <point x="140" y="1023" type="line"/>
      <point x="140" y="0" type="line"/>
      <point x="282" y="0" type="line"/>
      <point x="282" y="586" type="line" smooth="yes"/>
      <point x="282" y="716"/>
      <point x="355" y="913"/>
      <point x="584" y="913" type="curve"/>
      <point x="584" y="1042" type="line"/>
      <point x="472" y="1042"/>
      <point x="359" y="998"/>
      <point x="280" y="855" type="curve"/>
    </contour>
    <contour>
      <point x="361" y="1024" type="move" name="top"/>
    </contour>
    <contour>
      <point x="213" y="0" type="move" name="bot"/>
    </contour>
  </outline>
</glyph>
<glyph name="s" format="1">
  <advance width="950"/>
  <unicode hex="0073"/>
  <outline>
    <contour>
      <point x="290" y="1044"/>
      <point x="119" y="946"/>
      <point x="119" y="761" type="curve" smooth="yes"/>
      <point x="119.0" y="559.878146389"/>
      <point x="268" y="510"/>
      <point x="437" y="474" type="curve" smooth="yes"/>
      <point x="685" y="422"/>
      <point x="758.0" y="393.072585363"/>
      <point x="758" y="268" type="curve" smooth="yes"/>
      <point x="758" y="129"/>
      <point x="629" y="83"/>
      <point x="487" y="83" type="curve" smooth="yes"/>
      <point x="310" y="83"/>
      <point x="225" y="155"/>
      <point x="181" y="310" type="curve"/>
      <point x="76" y="269" type="line"/>
      <point x="114" y="45"/>
      <point x="310" y="-24"/>
      <point x="474" y="-24" type="curve" smooth="yes"/>
      <point x="745.384615385" y="-24.0"/>
      <point x="886.0" y="76.0"/>
      <point x="886" y="272" type="curve" smooth="yes"/>
      <point x="886" y="455"/>
      <point x="752" y="539"/>
      <point x="530" y="580" type="curve" smooth="yes"/>
      <point x="383" y="607"/>
      <point x="248" y="632"/>
      <point x="248" y="747" type="curve" smooth="yes"/>
      <point x="248" y="873"/>
      <point x="347" y="937"/>
      <point x="517" y="937" type="curve" smooth="yes"/>
      <point x="649" y="937"/>
      <point x="713" y="902"/>
      <point x="775" y="787" type="curve"/>
      <point x="775" y="788"/>
      <point x="877" y="851"/>
      <point x="877" y="851" type="curve"/>
      <point x="793" y="998"/>
      <point x="686" y="1044"/>
      <point x="509" y="1044" type="curve" smooth="yes"/>
    </contour>
    <contour>
      <point x="515" y="1024" type="move" name="top"/>
    </contour>
  </outline>
</glyph>
<glyph name="t" format="1">
  <advance width="701"/>
  <unicode hex="0074"/>
  <outline>
    <contour>
      <point x="623" y="116" type="line"/>
      <point x="582" y="98"/>
      <point x="542" y="86"/>
      <point x="506" y="86" type="curve" smooth="yes"/>
      <point x="426" y="86"/>
      <point x="368" y="135"/>
      <point x="368" y="264" type="curve" smooth="yes"/>
      <point x="368" y="924" type="line"/>
      <point x="592" y="924" type="line"/>
      <point x="592" y="1023" type="line"/>
      <point x="368" y="1023" type="line"/>
      <point x="368" y="1387" type="line"/>
      <point x="235" y="1370" type="line"/>
      <point x="235" y="1023" type="line"/>
      <point x="73" y="1023" type="line"/>
      <point x="73" y="924" type="line"/>
      <point x="226" y="924" type="line"/>
      <point x="226" y="325" type="line" smooth="yes"/>
      <point x="226" y="84"/>
      <point x="301" y="-24"/>
      <point x="477" y="-24" type="curve" smooth="yes"/>
      <point x="543" y="-24"/>
      <point x="606" y="-6"/>
      <point x="653" y="24" type="curve"/>
    </contour>
  </outline>
</glyph>
<glyph name="u" format="1">
  <advance width="1122"/>
  <unicode hex="0075"/>
  <outline>
    <contour>
      <point x="551" y="1024" type="move" name="top"/>
    </contour>
    <contour>
      <point x="914" y="0" type="move" name="bot"/>
    </contour>
    <contour>
      <point x="841" y="436" type="line" smooth="yes"/>
      <point x="841" y="331"/>
      <point x="768" y="87"/>
      <point x="505" y="87" type="curve" smooth="yes"/>
      <point x="334" y="87"/>
      <point x="281" y="209"/>
      <point x="281" y="406" type="curve" smooth="yes"/>
      <point x="281" y="1023" type="line"/>
      <point x="134" y="1023" type="line"/>
      <point x="134" y="436" type="line" smooth="yes"/>
      <point x="134" y="235"/>
      <point x="165" y="-24"/>
      <point x="480" y="-24" type="curve" smooth="yes"/>
      <point x="617" y="-24"/>
      <point x="754" y="21"/>
      <point x="842" y="159" type="curve"/>
      <point x="846" y="0" type="line"/>
      <point x="983" y="0" type="line"/>
      <point x="983" y="1023" type="line"/>
      <point x="841" y="1023" type="line"/>
    </contour>
  </outline>
</glyph>
<glyph name="v" format="1">
  <advance width="1100"/>
  <unicode hex="0076"/>
  <outline>
    <contour>
      <point x="875" y="1023" type="line"/>
      <point x="542" y="162" type="line"/>
      <point x="221" y="1023" type="line"/>
      <point x="69" y="1023" type="line"/>
      <point x="472" y="0" type="line"/>
      <point x="598" y="0" type="line"/>
      <point x="834" y="580" type="line"/>
      <point x="1013" y="1023" type="line"/>
    </contour>
  </outline>
</glyph>
<glyph name="w" format="1">
  <advance width="1633"/>
  <unicode hex="0077"/>
  <outline>
    <contour>
      <point x="421" y="0" type="line"/>
      <point x="548" y="0" type="line"/>
      <point x="639" y="267"/>
      <point x="718" y="529"/>
      <point x="812" y="800" type="curve"/>
      <point x="923" y="445"/>
      <point x="988" y="222"/>
      <point x="1058" y="0" type="curve"/>
      <point x="1185" y="0" type="line"/>
      <point x="1533" y="1023" type="line"/>
      <point x="1393" y="1023" type="line"/>
      <point x="1293" y="708"/>
      <point x="1211" y="450"/>
      <point x="1126" y="184" type="curve"/>
      <point x="1091" y="294"/>
      <point x="1056" y="402"/>
      <point x="1021" y="516" type="curve" smooth="yes"/>
      <point x="864" y="1023" type="line"/>
      <point x="770" y="1023" type="line"/>
      <point x="603" y="515" type="line" smooth="yes"/>
      <point x="567" y="406"/>
      <point x="527" y="292"/>
      <point x="492" y="183" type="curve"/>
      <point x="412" y="447"/>
      <point x="332" y="724"/>
      <point x="243" y="1023" type="curve"/>
      <point x="91" y="1023" type="line"/>
    </contour>
  </outline>
</glyph>
<glyph name="x" format="1">
  <advance width="1121"/>
  <unicode hex="0078"/>
  <outline>
    <contour>
      <point x="486" y="514" type="line"/>
      <point x="112" y="0" type="line"/>
      <point x="262" y="0" type="line"/>
      <point x="562" y="412" type="line"/>
      <point x="865" y="0" type="line"/>
      <point x="1019" y="0" type="line"/>
      <point x="639" y="518" type="line"/>
      <point x="1007" y="1023" type="line"/>
      <point x="857" y="1023" type="line"/>
      <point x="563" y="619" type="line"/>
      <point x="269" y="1023" type="line"/>
      <point x="115" y="1023" type="line"/>
    </contour>
  </outline>
</glyph>
<glyph name="y" format="1">
  <advance width="1069"/>
  <unicode hex="0079"/>
  <outline>
    <contour>
      <point x="466" y="64" type="line"/>
      <point x="74" y="1023" type="line"/>
      <point x="223" y="1023" type="line"/>
      <point x="327" y="754"/>
      <point x="439" y="460"/>
      <point x="540" y="208" type="curve"/>
      <point x="640" y="467"/>
      <point x="737" y="722"/>
      <point x="855" y="1023" type="curve"/>
      <point x="995" y="1023" type="line"/>
      <point x="873" y="715"/>
      <point x="747" y="405"/>
      <point x="624" y="97" type="curve" smooth="yes"/>
      <point x="517" y="-171"/>
      <point x="437" y="-320"/>
      <point x="209" y="-320" type="curve" smooth="yes"/>
      <point x="176" y="-320"/>
      <point x="141" y="-316"/>
      <point x="104" y="-306" type="curve"/>
      <point x="119" y="-211" type="line"/>
      <point x="152" y="-216"/>
      <point x="181" y="-218"/>
      <point x="207" y="-218" type="curve" smooth="yes"/>
      <point x="331" y="-218"/>
      <point x="390" y="-156"/>
      <point x="443" y="-3" type="curve" smooth="yes"/>
    </contour>
    <contour>
      <point x="535" y="1023" type="move" name="top"/>
    </contour>
  </outline>
</glyph>
<glyph name="z" format="1">
  <advance width="1020"/>
  <unicode hex="007A"/>
  <outline>
    <contour>
      <point x="166" y="919" type="line"/>
      <point x="743" y="919" type="line"/>
      <point x="113" y="94" type="line"/>
      <point x="113" y="0" type="line"/>
      <point x="910" y="0" type="line"/>
      <point x="910" y="103" type="line"/>
      <point x="283" y="103" type="line"/>
      <point x="912" y="928" type="line"/>
      <point x="912" y="1023" type="line"/>
      <point x="166" y="1023" type="line"/>
    </contour>
  </outline>
</glyph>
<glyph name="braceleft" format="1">
  <advance width="705"/>
  <unicode hex="007B"/>
  <outline>
    <contour>
      <point x="197" y="446" type="curve" smooth="yes"/>
      <point x="197" y="147"/>
      <point x="293" y="-2"/>
      <point x="606" y="-25" type="curve"/>
      <point x="608" y="80" type="line"/>
      <point x="352" y="91"/>
      <point x="348" y="245"/>
      <point x="348" y="446" type="curve" smooth="yes"/>
      <point x="348" y="587"/>
      <point x="305" y="678"/>
      <point x="229" y="732" type="curve"/>
      <point x="305" y="786"/>
      <point x="348" y="878"/>
      <point x="348" y="1019" type="curve" smooth="yes"/>
      <point x="348" y="1221"/>
      <point x="352" y="1375"/>
      <point x="608" y="1386" type="curve"/>
      <point x="606" y="1491" type="line"/>
      <point x="293" y="1468"/>
      <point x="197" y="1318"/>
      <point x="197" y="1019" type="curve" smooth="yes"/>
      <point x="197" y="890"/>
      <point x="167" y="802"/>
      <point x="78" y="780" type="curve"/>
      <point x="78" y="685" type="line"/>
      <point x="167" y="663"/>
      <point x="197" y="575"/>
    </contour>
  </outline>
</glyph>
<glyph name="bar" format="1">
  <advance width="456"/>
  <unicode hex="007C"/>
  <outline>
    <contour>
      <point x="301" y="-197" type="line"/>
      <point x="301" y="1502" type="line"/>
      <point x="155" y="1502" type="line"/>
      <point x="155" y="-197" type="line"/>
    </contour>
    <contour>
      <point x="227.0" y="0.0" type="move" name="bot"/>
    </contour>
  </outline>
</glyph>
<glyph name="braceright" format="1">
  <advance width="705"/>
  <unicode hex="007D"/>
  <outline>
    <contour>
      <point x="508" y="446" type="curve" smooth="yes"/>
      <point x="508" y="575"/>
      <point x="538" y="663"/>
      <point x="627" y="685" type="curve"/>
      <point x="627" y="780" type="line"/>
      <point x="538" y="802"/>
      <point x="508" y="890"/>
      <point x="508" y="1019" type="curve" smooth="yes"/>
      <point x="508" y="1318"/>
      <point x="412" y="1575"/>
      <point x="99" y="1598" type="curve"/>
      <point x="99" y="1493" type="line"/>
      <point x="355" y="1482"/>
      <point x="357" y="1221"/>
      <point x="357" y="1019" type="curve" smooth="yes"/>
      <point x="357" y="878"/>
      <point x="400" y="786"/>
      <point x="476" y="732" type="curve"/>
      <point x="400" y="678"/>
      <point x="357" y="587"/>
      <point x="357" y="446" type="curve" smooth="yes"/>
      <point x="357" y="245"/>
      <point x="355" y="8"/>
      <point x="99" y="-3" type="curve"/>
      <point x="99" y="-108" type="line"/>
      <point x="412" y="-85"/>
      <point x="508" y="147"/>
    </contour>
  </outline>
</glyph>
<glyph name="asciitilde" format="1">
  <advance width="747"/>
  <unicode hex="007E"/>
  <outline>
    <contour>
      <point x="169" y="937"/>
      <point x="205" y="976"/>
      <point x="245" y="976" type="curve" smooth="yes"/>
      <point x="278" y="976"/>
      <point x="441" y="848"/>
      <point x="558" y="848" type="curve" smooth="yes"/>
      <point x="631.469449433" y="848.0"/>
      <point x="749.0" y="932.21447777"/>
      <point x="749" y="1068" type="curve" smooth="yes"/>
      <point x="749" y="1069"/>
      <point x="650" y="1103"/>
      <point x="650" y="1103" type="curve"/>
      <point x="633" y="1015"/>
      <point x="598" y="973"/>
      <point x="557" y="973" type="curve" smooth="yes"/>
      <point x="491" y="973"/>
      <point x="366" y="1101"/>
      <point x="249" y="1101" type="curve" smooth="yes"/>
      <point x="184.723673457" y="1101.0"/>
      <point x="51.0" y="1036.33808394"/>
      <point x="51" y="889" type="curve" smooth="yes"/>
      <point x="51" y="888"/>
      <point x="149" y="848"/>
      <point x="149" y="848" type="curve"/>
    </contour>
    <contour>
      <point x="353" y="1023" type="move" name="_top"/>
    </contour>
  </outline>
</glyph>
<glyph name="cent" format="1">
  <advance width="1043"/>
  <unicode hex="00A2"/>
  <outline>
    <contour>
      <point x="119" y="509" type="curve" smooth="yes"/>
      <point x="119" y="198"/>
      <point x="266" y="-24"/>
      <point x="558" y="-24" type="curve" smooth="yes"/>
      <point x="717" y="-24"/>
      <point x="881" y="64"/>
      <point x="931" y="289" type="curve"/>
      <point x="830" y="323" type="line"/>
      <point x="784" y="167"/>
      <point x="694" y="81"/>
      <point x="561" y="81" type="curve" smooth="yes"/>
      <point x="353" y="81"/>
      <point x="262" y="260"/>
      <point x="262" y="512" type="curve" smooth="yes"/>
      <point x="262" y="767"/>
      <point x="355" y="940"/>
      <point x="567" y="940" type="curve" smooth="yes"/>
      <point x="697" y="940"/>
      <point x="781" y="862"/>
      <point x="823" y="701" type="curve"/>
      <point x="934" y="733" type="line"/>
      <point x="878" y="975"/>
      <point x="715" y="1044"/>
      <point x="561" y="1044" type="curve" smooth="yes"/>
      <point x="265" y="1044"/>
      <point x="119" y="817"/>
    </contour>
    <contour>
      <point x="509" y="-208" type="line"/>
      <point x="602" y="-208" type="line"/>
      <point x="602" y="1253" type="line"/>
      <point x="509" y="1253" type="line"/>
    </contour>
  </outline>
</glyph>
<glyph name="sterling" format="1">
  <advance width="1168"/>
  <unicode hex="00A3"/>
  <outline>
    <contour>
      <point x="227.074" y="807.6" type="line"/>
      <point x="227.074" y="1212.37"/>
      <point x="304.61" y="1491.25"/>
      <point x="658.711" y="1491.25" type="curve" smooth="yes"/>
      <point x="874.541" y="1491.25"/>
      <point x="1040.07" y="1380.53"/>
      <point x="1103" y="1102" type="curve"/>
      <point x="969" y="1071" type="line"/>
      <point x="932.806" y="1239.95"/>
      <point x="848.446" y="1374.56"/>
      <point x="664.212" y="1374.56" type="curve" smooth="yes"/>
      <point x="405.43" y="1374.56"/>
      <point x="372.837" y="1164"/>
      <point x="372.837" y="807.6" type="curve"/>
      <point x="709.5" y="807.6" type="line"/>
      <point x="709.5" y="694.6" type="line"/>
      <point x="366.444" y="694.6" type="line"/>
      <point x="366.791" y="439.586" type="line" smooth="yes"/>
      <point x="366.791" y="335.254"/>
      <point x="351.885" y="269.702"/>
      <point x="272" y="113" type="curve"/>
      <point x="272" y="113"/>
      <point x="564.428" y="224.497"/>
      <point x="661.264" y="224.497" type="curve" smooth="yes"/>
      <point x="803.431" y="224.497"/>
      <point x="913.906" y="190.183"/>
      <point x="1065" y="139" type="curve"/>
      <point x="1008" y="0" type="line"/>
      <point x="878.673" y="39.626"/>
      <point x="808.062" y="95.4717"/>
      <point x="650.025" y="95.4717" type="curve" smooth="yes"/>
      <point x="557.313" y="95.4717"/>
      <point x="430.466" y="62.957"/>
      <point x="231.5" y="-30" type="curve"/>
      <point x="116" y="60" type="line"/>
      <point x="208.052" y="249.436"/>
      <point x="223.16" y="470.73"/>
      <point x="223.16" y="595.597" type="curve" smooth="yes"/>
      <point x="220.812" y="694.6" type="line"/>
      <point x="66" y="694.6" type="line"/>
      <point x="66" y="807.6" type="line"/>
    </contour>
  </outline>
</glyph>
<glyph name="yen" format="1">
  <advance width="1241"/>
  <unicode hex="00A5"/>
  <outline>
    <contour>
      <point x="293" y="544" type="line"/>
      <point x="551" y="544" type="line"/>
      <point x="551" y="420" type="line"/>
      <point x="293" y="420" type="line"/>
      <point x="293" y="334" type="line"/>
      <point x="551" y="334" type="line"/>
      <point x="551" y="0" type="line"/>
      <point x="697" y="0" type="line"/>
      <point x="697" y="334" type="line"/>
      <point x="947" y="334" type="line"/>
      <point x="947" y="420" type="line"/>
      <point x="697" y="420" type="line"/>
      <point x="697" y="544" type="line"/>
      <point x="947" y="544" type="line"/>
      <point x="947" y="630" type="line"/>
      <point x="744" y="630" type="line"/>
      <point x="1209" y="1436" type="line"/>
      <point x="1052" y="1436" type="line"/>
      <point x="625" y="682" type="line"/>
      <point x="197" y="1436" type="line"/>
      <point x="39" y="1436" type="line"/>
      <point x="504" y="630" type="line"/>
      <point x="293" y="630" type="line"/>
    </contour>
  </outline>
</glyph>
<glyph name="dieresis" format="1">
  <advance width="970"/>
  <unicode hex="00A8"/>
  <outline>
    <contour>
      <point x="483" y="1044" type="move" name="_top"/>
    </contour>
    <contour>
      <point x="182" y="1375" type="line"/>
      <point x="182" y="1190" type="line"/>
      <point x="357" y="1190" type="line"/>
      <point x="357" y="1377" type="line"/>
    </contour>
    <contour>
      <point x="598" y="1377" type="line"/>
      <point x="598" y="1190" type="line"/>
      <point x="772" y="1190" type="line"/>
      <point x="772" y="1377" type="line"/>
    </contour>
  </outline>
</glyph>
<glyph name="copyright" format="1">
  <advance width="1484"/>
  <unicode hex="00A9"/>
  <outline>
    <contour>
      <point x="747" y="1247" type="curve" smooth="yes"/>
      <point x="544" y="1247"/>
      <point x="408" y="1115"/>
      <point x="408" y="799" type="curve" smooth="yes"/>
      <point x="408" y="475"/>
      <point x="527" y="344"/>
      <point x="741" y="344" type="curve" smooth="yes"/>
      <point x="877" y="344"/>
      <point x="979" y="413"/>
      <point x="1023" y="561" type="curve"/>
      <point x="957" y="584" type="line"/>
      <point x="924" y="481"/>
      <point x="864" y="415"/>
      <point x="745" y="415" type="curve" smooth="yes"/>
      <point x="553" y="415"/>
      <point x="489" y="544"/>
      <point x="489" y="799" type="curve" smooth="yes"/>
      <point x="489" y="1035"/>
      <point x="561" y="1177"/>
      <point x="744" y="1177" type="curve" smooth="yes"/>
      <point x="866" y="1177"/>
      <point x="925" y="1102"/>
      <point x="949" y="997" type="curve"/>
      <point x="1020" y="1015" type="line"/>
      <point x="982" y="1172"/>
      <point x="883" y="1247"/>
    </contour>
    <contour>
      <point x="1142.0" y="47.0"/>
      <point x="1470.0" y="375.0"/>
      <point x="1470.0" y="774.0" type="curve" smooth="yes"/>
      <point x="1470.0" y="1175.0"/>
      <point x="1142.0" y="1503.0"/>
      <point x="741.0" y="1503.0" type="curve" smooth="yes"/>
      <point x="342.0" y="1503.0"/>
      <point x="14.0" y="1175.0"/>
      <point x="14.0" y="774.0" type="curve" smooth="yes"/>
      <point x="14.0" y="375.0"/>
      <point x="342.0" y="47.0"/>
      <point x="741.0" y="47.0" type="curve" smooth="yes"/>
    </contour>
    <contour>
      <point x="740.0" y="100.0" type="curve" smooth="yes"/>
      <point x="370.0" y="100.0"/>
      <point x="67.0" y="403.0"/>
      <point x="67.0" y="773.0" type="curve" smooth="yes"/>
      <point x="67.0" y="1144.0"/>
      <point x="370.0" y="1447.0"/>
      <point x="740.0" y="1447.0" type="curve" smooth="yes"/>
      <point x="1111.0" y="1447.0"/>
      <point x="1414.0" y="1144.0"/>
      <point x="1414.0" y="773.0" type="curve" smooth="yes"/>
      <point x="1414.0" y="403.0"/>
      <point x="1111.0" y="100.0"/>
    </contour>
    <contour>
      <point x="743.0" y="315.0" type="move" name="bot"/>
    </contour>
    <contour>
      <point x="675.0" y="0.0" type="move" name="bot"/>
    </contour>
    <contour>
      <point x="750.0" y="1436.0" type="move" name="top"/>
    </contour>
  </outline>
</glyph>
<glyph name="guillemotleft" format="1">
  <advance width="1016"/>
  <unicode hex="00AB"/>
  <outline>
    <contour>
      <point x="946" y="251" type="line"/>
      <point x="946" y="393" type="line"/>
      <point x="599" y="650" type="line"/>
      <point x="946" y="909" type="line"/>
      <point x="946" y="1050" type="line"/>
      <point x="501" y="749" type="line"/>
      <point x="501" y="552" type="line"/>
    </contour>
    <contour>
      <point x="103" y="552" type="line"/>
      <point x="548" y="251" type="line"/>
      <point x="548" y="393" type="line"/>
      <point x="201" y="650" type="line"/>
      <point x="548" y="909" type="line"/>
      <point x="548" y="1050" type="line"/>
      <point x="103" y="749" type="line"/>
    </contour>
    <contour>
      <point x="572" y="1260" type="move" name="_top"/>
    </contour>
  </outline>
</glyph>
<glyph name="registered" format="1">
  <advance width="1484"/>
  <unicode hex="00AE"/>
  <outline>
    <contour>
      <point x="1142" y="47"/>
      <point x="1470" y="375"/>
      <point x="1470" y="774" type="curve" smooth="yes"/>
      <point x="1470" y="1175"/>
      <point x="1142" y="1503"/>
      <point x="741" y="1503" type="curve" smooth="yes"/>
      <point x="342" y="1503"/>
      <point x="14" y="1175"/>
      <point x="14" y="774" type="curve" smooth="yes"/>
      <point x="14" y="375"/>
      <point x="342" y="47"/>
      <point x="741" y="47" type="curve" smooth="yes"/>
    </contour>
    <contour>
      <point x="555" y="1184" type="line"/>
      <point x="739" y="1184" type="line" smooth="yes"/>
      <point x="851" y="1184"/>
      <point x="983" y="1169"/>
      <point x="983" y="1015" type="curve" smooth="yes"/>
      <point x="983" y="864"/>
      <point x="858" y="846"/>
      <point x="740" y="846" type="curve" smooth="yes"/>
      <point x="555" y="846" type="line"/>
    </contour>
    <contour>
      <point x="1070" y="1173"/>
      <point x="962" y="1248"/>
      <point x="748" y="1248" type="curve"/>
      <point x="469" y="1248" type="line"/>
      <point x="469" y="381" type="line"/>
      <point x="552" y="381" type="line"/>
      <point x="552" y="779" type="line"/>
      <point x="807" y="779" type="line"/>
      <point x="990" y="379" type="line"/>
      <point x="1077" y="379" type="line"/>
      <point x="1002" y="547" type="line"/>
      <point x="964" y="630"/>
      <point x="914" y="720"/>
      <point x="891" y="793" type="curve"/>
      <point x="1006" y="829"/>
      <point x="1070" y="900"/>
      <point x="1070" y="1017" type="curve" smooth="yes"/>
    </contour>
    <contour>
      <point x="740" y="100" type="curve" smooth="yes"/>
      <point x="370" y="100"/>
      <point x="67" y="403"/>
      <point x="67" y="773" type="curve" smooth="yes"/>
      <point x="67" y="1144"/>
      <point x="370" y="1447"/>
      <point x="740" y="1447" type="curve" smooth="yes"/>
      <point x="1111" y="1447"/>
      <point x="1414" y="1144"/>
      <point x="1414" y="773" type="curve" smooth="yes"/>
      <point x="1414" y="403"/>
      <point x="1111" y="100"/>
    </contour>
    <contour>
      <point x="675.0" y="0.0" type="move" name="bot"/>
    </contour>
    <contour>
      <point x="750.0" y="1436.0" type="move" name="top"/>
    </contour>
  </outline>
</glyph>
<glyph name="macron" format="1">
  <advance width="795"/>
  <unicode hex="00AF"/>
  <outline>
    <contour>
      <point x="400" y="1024" type="move" name="_top"/>
    </contour>
    <contour>
      <point x="171" y="1219" type="line"/>
      <point x="625" y="1219" type="line"/>
      <point x="625" y="1329" type="line"/>
      <point x="171" y="1329" type="line"/>
    </contour>
  </outline>
</glyph>
<glyph name="acute" format="1">
  <advance width="504"/>
  <unicode hex="00B4"/>
  <outline>
    <contour>
      <point x="117" y="1023" type="move" name="_top"/>
    </contour>
    <contour>
      <point x="206" y="1492" type="line"/>
      <point x="1" y="1172" type="line"/>
      <point x="93" y="1172" type="line"/>
      <point x="401" y="1492" type="line"/>
    </contour>
  </outline>
</glyph>
<glyph name="mu" format="1">
  <advance width="1122"/>
  <unicode hex="00B5"/>
  <outline>
    <contour>
      <point x="841" y="436" type="line" smooth="yes"/>
      <point x="841" y="331"/>
      <point x="768" y="87"/>
      <point x="505" y="87" type="curve" smooth="yes"/>
      <point x="334" y="87"/>
      <point x="281" y="189"/>
      <point x="281" y="356" type="curve" smooth="yes"/>
      <point x="281" y="1023" type="line"/>
      <point x="134" y="1023" type="line"/>
      <point x="134" y="-194" type="line"/>
      <point x="281" y="-194" type="line"/>
      <point x="281" y="57" type="line"/>
      <point x="442" y="-86"/>
      <point x="720" y="-34"/>
      <point x="842" y="159" type="curve"/>
      <point x="846" y="0" type="line"/>
      <point x="983" y="0" type="line"/>
      <point x="983" y="1023" type="line"/>
      <point x="841" y="1023" type="line"/>
    </contour>
  </outline>
</glyph>
<glyph name="paragraph" format="1">
  <advance width="1170"/>
  <unicode hex="00B6"/>
  <outline>
    <contour>
      <point x="547" y="0" type="line"/>
      <point x="547" y="669" type="line"/>
      <point x="218" y="699"/>
      <point x="53" y="797"/>
      <point x="53" y="1076" type="curve" smooth="yes"/>
      <point x="53" y="1355"/>
      <point x="221" y="1464"/>
      <point x="775" y="1464" type="curve" smooth="yes"/>
      <point x="1126" y="1464" type="line"/>
      <point x="1126" y="1349" type="line"/>
      <point x="956" y="1349" type="line"/>
      <point x="956" y="0" type="line"/>
      <point x="806" y="0" type="line"/>
      <point x="806" y="657" type="line"/>
      <point x="770" y="657"/>
      <point x="729" y="658"/>
      <point x="697" y="659" type="curve"/>
      <point x="697" y="0" type="line"/>
    </contour>
  </outline>
</glyph>
<glyph name="periodcentered" format="1">
  <advance width="442"/>
  <unicode hex="00B7"/>
  <outline>
    <contour>
      <point x="140" y="758" type="line"/>
      <point x="140" y="543" type="line"/>
      <point x="304" y="543" type="line"/>
      <point x="304" y="758" type="line"/>
    </contour>
  </outline>
</glyph>
<glyph name="cedilla" format="1">
  <advance width="435"/>
  <unicode hex="00B8"/>
  <outline>
    <contour>
      <point x="230" y="-187" type="curve"/>
      <point x="130" y="-187" type="line"/>
      <point x="130" y="0" type="line"/>
      <point x="279" y="0" type="line"/>
      <point x="279" y="0"/>
      <point x="307" y="-73"/>
      <point x="307" y="-199" type="curve" smooth="yes"/>
      <point x="307" y="-291"/>
      <point x="283" y="-380"/>
      <point x="184" y="-380" type="curve" smooth="yes"/>
      <point x="170" y="-380"/>
      <point x="156" y="-377"/>
      <point x="142" y="-371" type="curve"/>
      <point x="142" y="-299" type="line"/>
      <point x="149" y="-300"/>
      <point x="155" y="-301"/>
      <point x="162" y="-301" type="curve" smooth="yes"/>
      <point x="195" y="-301"/>
      <point x="230" y="-275"/>
    </contour>
    <contour>
      <point x="190" y="0" type="line"/>
    </contour>
    <contour>
      <point x="218.5" y="0" type="line" smooth="yes"/>
    </contour>
    <contour>
      <point x="218.5" y="0" type="move" name="_bottom"/>
    </contour>
  </outline>
</glyph>
<glyph name="guillemotright" format="1">
  <advance width="1016"/>
  <unicode hex="00BB"/>
  <outline>
    <contour>
      <point x="103" y="1049" type="line"/>
      <point x="103" y="907" type="line"/>
      <point x="450" y="650" type="line"/>
      <point x="103" y="391" type="line"/>
      <point x="103" y="250" type="line"/>
      <point x="548" y="551" type="line"/>
      <point x="548" y="748" type="line"/>
    </contour>
    <contour>
      <point x="946" y="748" type="line"/>
      <point x="501" y="1049" type="line"/>
      <point x="501" y="907" type="line"/>
      <point x="848" y="650" type="line"/>
      <point x="501" y="391" type="line"/>
      <point x="501" y="250" type="line"/>
      <point x="946" y="551" type="line"/>
    </contour>
    <contour>
      <point x="477" y="251" type="move" name="_top"/>
    </contour>
  </outline>
</glyph>
<glyph name="Ccedilla" format="1">
  <advance width="1361"/>
  <unicode hex="00C7"/>
  <outline>
    <contour>
      <point x="738" y="1491" type="curve" smooth="yes"/>
      <point x="351" y="1491"/>
      <point x="122" y="1266"/>
      <point x="122" y="738" type="curve" smooth="yes"/>
      <point x="122" y="195"/>
      <point x="341" y="-24"/>
      <point x="728" y="-24" type="curve" smooth="yes"/>
      <point x="979" y="-24"/>
      <point x="1171" y="90"/>
      <point x="1251" y="338" type="curve"/>
      <point x="1134" y="377" type="line"/>
      <point x="1075" y="195"/>
      <point x="957" y="94"/>
      <point x="741" y="94" type="curve" smooth="yes"/>
      <point x="394" y="94"/>
      <point x="275" y="311"/>
      <point x="275" y="738" type="curve" smooth="yes"/>
      <point x="275" y="1126"/>
      <point x="380" y="1375"/>
      <point x="735" y="1375" type="curve" smooth="yes"/>
      <point x="960" y="1375"/>
      <point x="1067" y="1247"/>
      <point x="1121" y="1071" type="curve"/>
      <point x="1247" y="1102" type="line"/>
      <point x="1175" y="1365"/>
      <point x="991" y="1491"/>
    </contour>
    <contour>
      <point x="755" y="-200" type="curve"/>
      <point x="755" y="-261"/>
      <point x="720" y="-285"/>
      <point x="669" y="-285" type="curve" smooth="yes"/>
      <point x="663" y="-285"/>
      <point x="656" y="-285"/>
      <point x="649" y="-284" type="curve"/>
      <point x="647" y="-345" type="line"/>
      <point x="667" y="-350"/>
      <point x="689" y="-352"/>
      <point x="710" y="-352" type="curve" smooth="yes"/>
      <point x="803" y="-352"/>
      <point x="842" y="-274"/>
      <point x="845" y="-219" type="curve"/>
      <point x="845" y="-155"/>
      <point x="832" y="-81"/>
      <point x="790" y="-23" type="curve"/>
      <point x="759" y="7" type="line"/>
      <point x="682" y="7" type="line"/>
      <point x="667" y="-146" type="line"/>
      <point x="710" y="-156"/>
      <point x="743" y="-178"/>
    </contour>
  </outline>
</glyph>
<glyph name="multiply" format="1">
  <advance width="877"/>
  <unicode hex="00D7"/>
  <outline>
    <contour>
      <point x="273" y="203" type="line"/>
      <point x="449" y="379" type="line"/>
      <point x="626" y="202" type="line"/>
      <point x="698" y="274" type="line"/>
      <point x="521" y="451" type="line"/>
      <point x="697" y="627" type="line"/>
      <point x="627" y="697" type="line"/>
      <point x="451" y="521" type="line"/>
      <point x="274" y="698" type="line"/>
      <point x="202" y="626" type="line"/>
      <point x="379" y="449" type="line"/>
      <point x="203" y="273" type="line"/>
    </contour>
  </outline>
</glyph>
<glyph name="Thorn" format="1">
  <advance width="1261"/>
  <unicode hex="00DE"/>
  <outline>
    <contour>
      <point x="140" y="0" type="line"/>
      <point x="140" y="1464" type="line"/>
      <point x="296" y="1464" type="line"/>
      <point x="296" y="1199" type="line"/>
      <point x="561" y="1199" type="line" smooth="yes"/>
      <point x="1030" y="1199"/>
      <point x="1203" y="1122"/>
      <point x="1203" y="833" type="curve" smooth="yes"/>
      <point x="1203" y="502"/>
      <point x="1007" y="437"/>
      <point x="502" y="437" type="curve" smooth="yes"/>
      <point x="290" y="437" type="line"/>
      <point x="290" y="0" type="line"/>
    </contour>
    <contour>
      <point x="296" y="1085" type="line"/>
      <point x="296" y="551" type="line"/>
      <point x="558" y="551" type="line"/>
      <point x="914" y="552"/>
      <point x="1055" y="586"/>
      <point x="1055" y="825" type="curve" smooth="yes"/>
      <point x="1055" y="1065"/>
      <point x="914" y="1085"/>
      <point x="538" y="1085" type="curve" smooth="yes"/>
    </contour>
  </outline>
</glyph>
<glyph name="germandbls" format="1">
  <advance width="1234"/>
  <unicode hex="00DF"/>
  <outline>
    <contour>
      <point x="140" y="0" type="line"/>
      <point x="286" y="0" type="line"/>
      <point x="286" y="1140" type="line" smooth="yes"/>
      <point x="286" y="1303"/>
      <point x="430" y="1388"/>
      <point x="575" y="1388" type="curve" smooth="yes"/>
      <point x="731" y="1388"/>
      <point x="814" y="1262"/>
      <point x="814" y="1149" type="curve" smooth="yes"/>
      <point x="814.0" y="988.576560316"/>
      <point x="698.176604883" y="883.417104879"/>
      <point x="454" y="855" type="curve"/>
      <point x="454" y="748" type="line"/>
      <point x="547" y="748" type="line" smooth="yes"/>
      <point x="881.790766995" y="748.0"/>
      <point x="1003.0" y="604.395272152"/>
      <point x="1003" y="395" type="curve" smooth="yes"/>
      <point x="1003" y="193"/>
      <point x="875" y="21"/>
      <point x="451" y="-17" type="curve"/>
      <point x="451" y="-134" type="line"/>
      <point x="969" y="-95"/>
      <point x="1151" y="122"/>
      <point x="1151" y="395" type="curve" smooth="yes"/>
      <point x="1151.0" y="643.101703834"/>
      <point x="980.17169662" y="819.034026232"/>
      <point x="703" y="843" type="curve"/>
      <point x="877.185324478" y="884.721035803"/>
      <point x="950.0" y="1004.54909515"/>
      <point x="950" y="1150" type="curve" smooth="yes"/>
      <point x="950" y="1305"/>
      <point x="836" y="1492"/>
      <point x="578" y="1492" type="curve" smooth="yes"/>
      <point x="360" y="1492"/>
      <point x="140" y="1373"/>
      <point x="140" y="1151" type="curve" smooth="yes"/>
    </contour>
  </outline>
</glyph>
<glyph name="ae" format="1">
  <advance width="1742"/>
  <unicode hex="00E6"/>
  <outline>
    <contour>
      <point x="549" y="1044" type="curve" smooth="yes"/>
      <point x="397" y="1044"/>
      <point x="278" y="1006"/>
      <point x="164" y="927" type="curve"/>
      <point x="234" y="838" type="line"/>
      <point x="321" y="894"/>
      <point x="393" y="940"/>
      <point x="554" y="940" type="curve" smooth="yes"/>
      <point x="756" y="940"/>
      <point x="783" y="813"/>
      <point x="783" y="579" type="curve"/>
      <point x="467" y="579"/>
      <point x="115" y="519"/>
      <point x="115" y="251" type="curve" smooth="yes"/>
      <point x="115" y="73"/>
      <point x="258" y="-24"/>
      <point x="419" y="-24" type="curve" smooth="yes"/>
      <point x="596" y="-24"/>
      <point x="750" y="25"/>
      <point x="888" y="133" type="curve"/>
      <point x="958" y="35"/>
      <point x="1068" y="-24"/>
      <point x="1226" y="-24" type="curve"/>
      <point x="1400" y="-22"/>
      <point x="1559" y="85"/>
      <point x="1608" y="277" type="curve"/>
      <point x="1511" y="317" type="line"/>
      <point x="1480" y="200"/>
      <point x="1398" y="81"/>
      <point x="1222" y="81" type="curve" smooth="yes"/>
      <point x="994" y="81"/>
      <point x="927" y="272"/>
      <point x="927" y="494" type="curve"/>
      <point x="1626" y="494" type="line"/>
      <point x="1628" y="511"/>
      <point x="1629" y="549"/>
      <point x="1629" y="558" type="curve" smooth="yes"/>
      <point x="1629" y="830"/>
      <point x="1507" y="1044"/>
      <point x="1222" y="1044" type="curve" smooth="yes"/>
      <point x="1073" y="1044"/>
      <point x="934" y="966"/>
      <point x="873" y="832" type="curve"/>
      <point x="845" y="979"/>
      <point x="713" y="1044"/>
    </contour>
    <contour>
      <point x="837" y="220" type="curve"/>
      <point x="729" y="133"/>
      <point x="590" y="81"/>
      <point x="445" y="81" type="curve" smooth="yes"/>
      <point x="335" y="81"/>
      <point x="257" y="143"/>
      <point x="257" y="256" type="curve" smooth="yes"/>
      <point x="257" y="440"/>
      <point x="529" y="480"/>
      <point x="748" y="480" type="curve" smooth="yes"/>
      <point x="783" y="480" type="line"/>
      <point x="785" y="388"/>
      <point x="810" y="285"/>
    </contour>
    <contour>
      <point x="1218" y="941" type="curve" smooth="yes"/>
      <point x="1409" y="941"/>
      <point x="1491" y="802"/>
      <point x="1492" y="592" type="curve"/>
      <point x="928" y="592" type="line"/>
      <point x="938" y="774"/>
      <point x="1034" y="941"/>
    </contour>
  </outline>
</glyph>
<glyph name="ograve" format="1">
  <advance width="1114"/>
  <unicode hex="00F2"/>
  <outline>
    <contour>
      <point x="154" y="1459" type="line"/>
      <point x="254" y="1345"/>
      <point x="357" y="1231"/>
      <point x="461" y="1126" type="curve"/>
      <point x="515" y="1170" type="line"/>
      <point x="464" y="1251"/>
      <point x="410" y="1337"/>
      <point x="359" y="1419" type="curve"/>
      <point x="303" y="1489" type="line"/>
    </contour>
    <contour>
      <point x="580" y="941" type="curve" smooth="yes"/>
      <point x="813" y="941"/>
      <point x="876" y="719"/>
      <point x="876" y="511" type="curve" smooth="yes"/>
      <point x="876" y="301"/>
      <point x="814" y="81"/>
      <point x="581" y="81" type="curve" smooth="yes"/>
      <point x="346" y="81"/>
      <point x="286" y="302"/>
      <point x="286" y="513" type="curve" smooth="yes"/>
      <point x="286" y="720"/>
      <point x="347" y="941"/>
    </contour>
    <contour>
      <point x="582" y="1044" type="curve" smooth="yes"/>
      <point x="327" y="1044"/>
      <point x="142" y="872"/>
      <point x="142" y="510" type="curve" smooth="yes"/>
      <point x="142" y="161"/>
      <point x="316" y="-24"/>
      <point x="580" y="-24" type="curve" smooth="yes"/>
      <point x="845" y="-24"/>
      <point x="1018" y="162"/>
      <point x="1018" y="513" type="curve" smooth="yes"/>
      <point x="1018" y="873"/>
      <point x="832" y="1044"/>
    </contour>
  </outline>
</glyph>
<glyph name="oslash" format="1">
  <advance width="1114"/>
  <unicode hex="00F8"/>
  <outline>
    <contour>
      <point x="274" y="-188" type="line"/>
      <point x="926" y="1187" type="line"/>
      <point x="854" y="1225" type="line"/>
      <point x="201" y="-150" type="line"/>
    </contour>
    <component base="o"/>
  </outline>
</glyph>
<glyph name="udieresis" format="1">
  <advance width="1154"/>
  <unicode hex="00FC"/>
  <outline>
    <contour>
      <point x="855" y="436" type="line" smooth="yes"/>
      <point x="855" y="415"/>
      <point x="854" y="395"/>
      <point x="850" y="379" type="curve" smooth="yes"/>
      <point x="832" y="300"/>
      <point x="760" y="87"/>
      <point x="519" y="87" type="curve" smooth="yes"/>
      <point x="348" y="87"/>
      <point x="295" y="209"/>
      <point x="295" y="406" type="curve" smooth="yes"/>
      <point x="295" y="1022" type="line"/>
      <point x="148" y="1022" type="line"/>
      <point x="148" y="436" type="line" smooth="yes"/>
      <point x="148" y="234"/>
      <point x="179" y="-24"/>
      <point x="494" y="-24" type="curve" smooth="yes"/>
      <point x="630" y="-24"/>
      <point x="762" y="21"/>
      <point x="856" y="159" type="curve"/>
      <point x="860" y="-1" type="line"/>
      <point x="997" y="-1" type="line"/>
      <point x="997" y="1022" type="line"/>
      <point x="855" y="1022" type="line"/>
    </contour>
    <contour>
      <point x="283" y="1372" type="curve"/>
      <point x="283" y="1307"/>
      <point x="285" y="1246"/>
      <point x="289" y="1190" type="curve"/>
      <point x="347" y="1190"/>
      <point x="404" y="1191"/>
      <point x="457" y="1195" type="curve"/>
      <point x="457" y="1261"/>
      <point x="454" y="1321"/>
      <point x="451" y="1377" type="curve"/>
      <point x="392" y="1377"/>
      <point x="336" y="1376"/>
    </contour>
    <contour>
      <point x="739" y="1372" type="curve"/>
      <point x="739" y="1307"/>
      <point x="741" y="1246"/>
      <point x="744" y="1190" type="curve"/>
      <point x="802" y="1190"/>
      <point x="860" y="1191"/>
      <point x="912" y="1195" type="curve"/>
      <point x="912" y="1261"/>
      <point x="910" y="1321"/>
      <point x="906" y="1377" type="curve"/>
      <point x="848" y="1377"/>
      <point x="791" y="1376"/>
    </contour>
  </outline>
</glyph>
<glyph name="hbar" format="1">
  <advance width="1117"/>
  <unicode hex="0127"/>
  <outline>
    <contour>
      <point x="-1" y="1205" type="line"/>
      <point x="140" y="1205" type="line"/>
      <point x="140" y="0" type="line"/>
      <point x="283" y="0" type="line"/>
      <point x="283" y="483" type="line" smooth="yes"/>
      <point x="283" y="723"/>
      <point x="359" y="940"/>
      <point x="613" y="940" type="curve" smooth="yes"/>
      <point x="797" y="940"/>
      <point x="849" y="807"/>
      <point x="849" y="594" type="curve" smooth="yes"/>
      <point x="849" y="0" type="line"/>
      <point x="991" y="0" type="line"/>
      <point x="991" y="583" type="line" smooth="yes"/>
      <point x="991" y="784"/>
      <point x="960" y="1044"/>
      <point x="634" y="1044" type="curve" smooth="yes"/>
      <point x="501" y="1044"/>
      <point x="370" y="999"/>
      <point x="282" y="862" type="curve"/>
      <point x="283" y="925"/>
      <point x="283" y="989"/>
      <point x="283" y="1053" type="curve" smooth="yes"/>
      <point x="283" y="1205" type="line"/>
      <point x="550" y="1205" type="line"/>
      <point x="550" y="1299" type="line"/>
      <point x="283" y="1299" type="line"/>
      <point x="283" y="1473" type="line"/>
      <point x="140" y="1473" type="line"/>
      <point x="140" y="1299" type="line"/>
      <point x="-1" y="1299" type="line"/>
    </contour>
  </outline>
</glyph>
<glyph name="OE" format="1">
  <advance width="2279"/>
  <unicode hex="0152"/>
  <outline>
    <contour>
      <point x="792" y="1370" type="curve"/>
      <point x="422.568" y="1370"/>
      <point x="310" y="1128.01"/>
      <point x="310" y="738" type="curve" smooth="yes"/>
      <point x="310" y="302"/>
      <point x="429" y="96"/>
      <point x="758" y="96" type="curve" smooth="yes"/>
      <point x="985" y="96"/>
      <point x="1109" y="196"/>
      <point x="1164" y="403" type="curve"/>
      <point x="1181" y="499"/>
      <point x="1188" y="611"/>
      <point x="1188" y="738" type="curve" smooth="yes"/>
      <point x="1188" y="1102"/>
      <point x="1115" y="1350"/>
    </contour>
    <contour>
      <point x="795" y="1474" type="curve" smooth="yes"/>
      <point x="954" y="1474"/>
      <point x="1085" y="1405"/>
      <point x="1166" y="1263" type="curve"/>
      <point x="1173" y="1330"/>
      <point x="1181" y="1398"/>
      <point x="1188" y="1464" type="curve"/>
      <point x="2155" y="1464" type="line"/>
      <point x="2155" y="1352" type="line"/>
      <point x="1335" y="1352" type="line"/>
      <point x="1335" y="838" type="line"/>
      <point x="2041" y="838" type="line"/>
      <point x="2041" y="723" type="line"/>
      <point x="1335" y="723" type="line"/>
      <point x="1335" y="113" type="line"/>
      <point x="2166" y="113" type="line"/>
      <point x="2166" y="0" type="line"/>
      <point x="1337" y="0" type="line" smooth="yes"/>
      <point x="1285" y="0"/>
      <point x="1235" y="-1"/>
      <point x="1185" y="-1" type="curve"/>
      <point x="1175" y="62"/>
      <point x="1166" y="126"/>
      <point x="1161" y="198" type="curve"/>
      <point x="1073" y="36"/>
      <point x="931" y="-21"/>
      <point x="746" y="-21" type="curve"/>
      <point x="370" y="-14"/>
      <point x="157" y="194"/>
      <point x="157" y="739" type="curve" smooth="yes"/>
      <point x="157" y="1299.06"/>
      <point x="387.182" y="1474"/>
    </contour>
    <contour>
      <point x="1140" y="1464" type="move" name="top"/>
    </contour>
  </outline>
</glyph>
<glyph name="dotlessj" format="1">
  <advance width="530"/>
  <unicode hex="0237"/>
  <outline>
    <contour>
      <point x="262" y="-87" type="line" smooth="yes"/>
      <point x="262" y="-178"/>
      <point x="225" y="-214"/>
      <point x="166" y="-214" type="curve" smooth="yes"/>
      <point x="133" y="-214"/>
      <point x="95" y="-205"/>
      <point x="57" y="-191" type="curve"/>
      <point x="33" y="-281" type="line"/>
      <point x="81" y="-309"/>
      <point x="134" y="-325"/>
      <point x="185" y="-325" type="curve" smooth="yes"/>
      <point x="377" y="-325"/>
      <point x="404" y="-217"/>
      <point x="404" y="-12" type="curve" smooth="yes"/>
      <point x="404" y="1023" type="line"/>
      <point x="262" y="1023" type="line"/>
    </contour>
  </outline>
</glyph>
<glyph name="caron" format="1">
  <advance width="504"/>
  <unicode hex="02C7"/>
  <outline>
    <contour>
      <point x="117" y="1023" type="move" name="_top"/>
    </contour>
    <contour>
      <point x="214" y="1172" type="line"/>
      <point x="419" y="1492" type="line"/>
      <point x="327" y="1492" type="line"/>
      <point x="116" y="1274" type="line"/>
      <point x="-94" y="1492" type="line"/>
      <point x="-186" y="1492" type="line"/>
      <point x="19" y="1172" type="line"/>
    </contour>
  </outline>
</glyph>
<glyph name="breve" format="1">
  <advance width="504"/>
  <unicode hex="02D8"/>
  <outline>
    <contour>
      <point x="117" y="1023" type="move" name="_top"/>
    </contour>
    <contour>
      <point x="116" y="1183" type="curve" smooth="yes"/>
      <point x="253" y="1183"/>
      <point x="388" y="1268"/>
      <point x="392" y="1438" type="curve"/>
      <point x="266" y="1438" type="line"/>
      <point x="263" y="1345"/>
      <point x="190" y="1299"/>
      <point x="116" y="1299" type="curve" smooth="yes"/>
      <point x="42" y="1299"/>
      <point x="-31" y="1345"/>
      <point x="-34" y="1438" type="curve"/>
      <point x="-160" y="1438" type="line"/>
      <point x="-156" y="1268"/>
      <point x="-21" y="1183"/>
    </contour>
  </outline>
</glyph>
<glyph name="dotaccent" format="1">
  <advance width="539"/>
  <unicode hex="02D9"/>
  <outline>
    <contour>
      <point x="270" y="1248" type="curve" smooth="yes"/>
      <point x="175" y="1248"/>
      <point x="128" y="1320"/>
      <point x="128" y="1393" type="curve" smooth="yes"/>
      <point x="128" y="1464"/>
      <point x="175" y="1537"/>
      <point x="270" y="1537" type="curve" smooth="yes"/>
      <point x="365" y="1537"/>
      <point x="412" y="1464"/>
      <point x="412" y="1393" type="curve" smooth="yes"/>
      <point x="412" y="1320"/>
      <point x="365" y="1248"/>
    </contour>
    <contour>
      <point x="270" y="1023" type="move" name="_top"/>
    </contour>
  </outline>
</glyph>
<glyph name="ring" format="1">
  <advance width="728"/>
  <unicode hex="02DA"/>
  <outline>
    <contour>
      <point x="601" y="1377" type="curve" smooth="yes"/>
      <point x="601" y="1263"/>
      <point x="522" y="1150"/>
      <point x="364" y="1150" type="curve" smooth="yes"/>
      <point x="206" y="1150"/>
      <point x="127" y="1263"/>
      <point x="127" y="1377" type="curve" smooth="yes"/>
      <point x="127" y="1489"/>
      <point x="206" y="1602"/>
      <point x="364" y="1602" type="curve" smooth="yes"/>
      <point x="522" y="1602"/>
      <point x="601" y="1489"/>
    </contour>
    <contour>
      <point x="241" y="1376" type="curve" smooth="yes"/>
      <point x="241" y="1313"/>
      <point x="282" y="1249"/>
      <point x="364" y="1249" type="curve" smooth="yes"/>
      <point x="446" y="1249"/>
      <point x="487" y="1313"/>
      <point x="487" y="1376" type="curve" smooth="yes"/>
      <point x="487" y="1439"/>
      <point x="446" y="1502"/>
      <point x="364" y="1502" type="curve" smooth="yes"/>
      <point x="282" y="1502"/>
      <point x="241" y="1439"/>
    </contour>
    <contour>
      <point x="364" y="1023" type="move" name="_top"/>
    </contour>
  </outline>
</glyph>
<glyph name="ogonek" format="1">
  <advance width="473"/>
  <unicode hex="02DB"/>
  <outline>
    <contour>
      <point x="210" y="0" type="move" name="_bot"/>
    </contour>
    <contour>
      <point x="249" y="0" type="curve"/>
      <point x="178" y="0" type="line"/>
      <point x="131" y="-34"/>
      <point x="51" y="-152"/>
      <point x="51" y="-241" type="curve" smooth="yes"/>
      <point x="51" y="-309"/>
      <point x="109" y="-369"/>
      <point x="215" y="-369" type="curve" smooth="yes"/>
      <point x="234" y="-369"/>
      <point x="256" y="-367"/>
      <point x="280" y="-361" type="curve"/>
      <point x="280" y="-278" type="line"/>
      <point x="267" y="-281"/>
      <point x="255" y="-283"/>
      <point x="245" y="-283" type="curve" smooth="yes"/>
      <point x="191" y="-283"/>
      <point x="172" y="-257"/>
      <point x="172" y="-219" type="curve" smooth="yes"/>
      <point x="172" y="-161"/>
      <point x="215" y="-74"/>
    </contour>
  </outline>
</glyph>
<glyph name="tilde" format="1">
  <advance width="504"/>
  <unicode hex="02DC"/>
  <outline>
    <contour>
      <point x="-52" y="1200" type="line"/>
      <point x="-52" y="1262"/>
      <point x="-23" y="1288"/>
      <point x="-2" y="1288" type="curve" smooth="yes"/>
      <point x="56" y="1288"/>
      <point x="171" y="1202"/>
      <point x="265" y="1202" type="curve" smooth="yes"/>
      <point x="323" y="1202"/>
      <point x="400" y="1239"/>
      <point x="400" y="1360" type="curve" smooth="yes"/>
      <point x="400" y="1371"/>
      <point x="399" y="1383"/>
      <point x="398" y="1395" type="curve"/>
      <point x="301" y="1395" type="line"/>
      <point x="301" y="1336"/>
      <point x="285" y="1299"/>
      <point x="262" y="1299" type="curve" smooth="yes"/>
      <point x="202" y="1299"/>
      <point x="56" y="1391"/>
      <point x="-22" y="1391" type="curve" smooth="yes"/>
      <point x="-79" y="1391"/>
      <point x="-150" y="1370"/>
      <point x="-150" y="1241" type="curve" smooth="yes"/>
      <point x="-150" y="1229"/>
      <point x="-150" y="1215"/>
      <point x="-148" y="1200" type="curve"/>
    </contour>
    <contour>
      <point x="117" y="1023" type="move" name="_top"/>
    </contour>
  </outline>
</glyph>
<glyph name="hungarumlaut" format="1">
  <advance width="504"/>
  <unicode hex="02DD"/>
  <outline>
    <contour>
      <point x="117" y="1023" type="move" name="_top"/>
    </contour>
    <contour>
      <point x="126" y="1492" type="line"/>
      <point x="1" y="1172" type="line"/>
      <point x="93" y="1172" type="line"/>
      <point x="321" y="1492" type="line"/>
    </contour>
    <contour>
      <point x="424" y="1492" type="line"/>
      <point x="299" y="1172" type="line"/>
      <point x="391" y="1172" type="line"/>
      <point x="619" y="1492" type="line"/>
    </contour>
  </outline>
</glyph>
<glyph name="uni0307" format="1">
  <advance width="539"/>
  <unicode hex="0307"/>
  <outline>
    <contour>
      <point x="270" y="1248" type="curve" smooth="yes"/>
      <point x="175" y="1248"/>
      <point x="128" y="1320"/>
      <point x="128" y="1393" type="curve" smooth="yes"/>
      <point x="128" y="1464"/>
      <point x="175" y="1537"/>
      <point x="270" y="1537" type="curve" smooth="yes"/>
      <point x="365" y="1537"/>
      <point x="412" y="1464"/>
      <point x="412" y="1393" type="curve" smooth="yes"/>
      <point x="412" y="1320"/>
      <point x="365" y="1248"/>
    </contour>
  </outline>
</glyph>
<glyph name="uni030F" format="1">
  <advance width="504"/>
  <unicode hex="030F"/>
  <outline>
    <contour>
      <point x="117" y="1023" type="move" name="_top"/>
    </contour>
    <contour>
      <point x="1" y="1492" type="line"/>
      <point x="229" y="1172" type="line"/>
      <point x="321" y="1172" type="line"/>
      <point x="196" y="1492" type="line"/>
    </contour>
    <contour>
      <point x="299" y="1492" type="line"/>
      <point x="527" y="1172" type="line"/>
      <point x="619" y="1172" type="line"/>
      <point x="494" y="1492" type="line"/>
    </contour>
  </outline>
</glyph>
<glyph name="uni0311" format="1">
  <advance width="504"/>
  <unicode hex="0311"/>
  <outline>
    <contour>
      <point x="117" y="1023" type="move" name="_top"/>
    </contour>
    <contour>
      <point x="116" y="1438" type="curve" smooth="yes"/>
      <point x="-21" y="1438"/>
      <point x="-156" y="1353"/>
      <point x="-160" y="1183" type="curve"/>
      <point x="-34" y="1183" type="line"/>
      <point x="-31" y="1276"/>
      <point x="42" y="1322"/>
      <point x="116" y="1322" type="curve" smooth="yes"/>
      <point x="190" y="1322"/>
      <point x="263" y="1276"/>
      <point x="266" y="1183" type="curve"/>
      <point x="392" y="1183" type="line"/>
      <point x="388" y="1353"/>
      <point x="253" y="1438"/>
    </contour>
  </outline>
</glyph>
<glyph name="uni0326" format="1">
  <advance width="473"/>
  <unicode hex="0326"/>
  <outline>
    <contour>
      <point x="210" y="0" type="move" name="_bot"/>
    </contour>
    <contour>
      <point x="170" y="-193" type="line"/>
      <point x="171" y="-137"/>
      <point x="181" y="-47"/>
      <point x="249" y="0" type="curve"/>
      <point x="208" y="0" type="line"/>
      <point x="154" y="0"/>
      <point x="100" y="-59"/>
      <point x="100" y="-185" type="curve"/>
      <point x="107" y="-361" type="line"/>
      <point x="250" y="-361" type="line"/>
      <point x="250" y="-193" type="line"/>
    </contour>
  </outline>
</glyph>
<glyph name="quoteleft" format="1">
  <advance width="440"/>
  <unicode hex="2018"/>
  <outline>
    <contour>
      <point x="243" y="1469" type="curve"/>
      <point x="126" y="1371"/>
      <point x="107" y="1235"/>
      <point x="107" y="1089" type="curve"/>
      <point x="111" y="992" type="line"/>
      <point x="309" y="993" type="line"/>
      <point x="308" y="1058"/>
      <point x="308" y="1122"/>
      <point x="308" y="1187" type="curve"/>
      <point x="234" y="1200" type="line"/>
      <point x="234" y="1263"/>
      <point x="249" y="1313"/>
      <point x="277" y="1345" type="curve"/>
      <point x="290" y="1385"/>
      <point x="305" y="1413"/>
      <point x="312" y="1431" type="curve"/>
      <point x="288" y="1444"/>
      <point x="265" y="1457"/>
    </contour>
  </outline>
</glyph>
<glyph name="quoteright" format="1">
  <advance width="419"/>
  <unicode hex="2019"/>
  <outline>
    <contour>
      <point x="129" y="1302" type="line"/>
      <point x="150" y="1290"/>
      <point x="170" y="1276"/>
      <point x="190" y="1264" type="curve"/>
      <point x="187" y="1144"/>
      <point x="136" y="1077"/>
      <point x="111" y="1054" type="curve"/>
      <point x="160" y="991" type="line"/>
      <point x="320" y="1104"/>
      <point x="317" y="1286"/>
      <point x="321" y="1466" type="curve"/>
      <point x="147" y="1467" type="line"/>
    </contour>
  </outline>
</glyph>
<glyph name="quotesinglbase" format="1">
  <advance width="419"/>
  <unicode hex="201A"/>
  <outline>
    <contour>
      <point x="129" y="-71" type="line"/>
      <point x="150" y="-83"/>
      <point x="170" y="-97"/>
      <point x="190" y="-109" type="curve"/>
      <point x="187" y="-229"/>
      <point x="136" y="-296"/>
      <point x="111" y="-319" type="curve"/>
      <point x="160" y="-382" type="line"/>
      <point x="320" y="-269"/>
      <point x="317" y="-87"/>
      <point x="321" y="93" type="curve"/>
      <point x="147" y="93" type="line"/>
    </contour>
  </outline>
</glyph>
<glyph name="quotedblleft" format="1">
  <advance width="759"/>
  <unicode hex="201C"/>
  <outline>
    <contour>
      <point x="579" y="1473" type="line"/>
      <point x="445" y="1378"/>
      <point x="423" y="1242"/>
      <point x="418" y="1084" type="curve"/>
      <point x="417" y="995" type="line"/>
      <point x="610" y="997" type="line"/>
      <point x="611" y="1058"/>
      <point x="613" y="1120"/>
      <point x="615" y="1183" type="curve"/>
      <point x="547" y="1196" type="line"/>
      <point x="550" y="1319"/>
      <point x="603" y="1387"/>
      <point x="628" y="1410" type="curve"/>
    </contour>
    <contour>
      <point x="285" y="1473" type="line"/>
      <point x="151" y="1379"/>
      <point x="128" y="1240"/>
      <point x="125" y="1084" type="curve" smooth="yes"/>
      <point x="123" y="995" type="line"/>
      <point x="316" y="997" type="line"/>
      <point x="318" y="1059"/>
      <point x="320" y="1121"/>
      <point x="322" y="1183" type="curve"/>
      <point x="253" y="1197" type="line"/>
      <point x="256" y="1319"/>
      <point x="309" y="1387"/>
      <point x="334" y="1410" type="curve"/>
    </contour>
  </outline>
</glyph>
<glyph name="quotedblright" format="1">
  <advance width="753"/>
  <unicode hex="201D"/>
  <outline>
    <contour>
      <point x="438" y="1302" type="line"/>
      <point x="459" y="1291"/>
      <point x="478" y="1276"/>
      <point x="499" y="1263" type="curve"/>
      <point x="496" y="1142"/>
      <point x="444" y="1075"/>
      <point x="419" y="1054" type="curve"/>
      <point x="470" y="991" type="line"/>
      <point x="629" y="1103"/>
      <point x="626" y="1287"/>
      <point x="631" y="1466" type="curve"/>
      <point x="456" y="1467" type="line"/>
    </contour>
    <contour>
      <point x="146" y="1302" type="line"/>
      <point x="167" y="1290"/>
      <point x="187" y="1276"/>
      <point x="207" y="1264" type="curve"/>
      <point x="204" y="1144"/>
      <point x="153" y="1077"/>
      <point x="127" y="1054" type="curve"/>
      <point x="177" y="991" type="line"/>
      <point x="337" y="1104"/>
      <point x="335" y="1286"/>
      <point x="339" y="1466" type="curve"/>
      <point x="164" y="1467" type="line"/>
    </contour>
  </outline>
</glyph>
<glyph name="quotedblbase" format="1">
  <advance width="768"/>
  <unicode hex="201E"/>
  <outline>
    <contour>
      <point x="454" y="-71" type="line"/>
      <point x="475" y="-83"/>
      <point x="495" y="-97"/>
      <point x="515" y="-109" type="curve"/>
      <point x="512" y="-229"/>
      <point x="461" y="-296"/>
      <point x="436" y="-319" type="curve"/>
      <point x="485" y="-382" type="line"/>
      <point x="645" y="-269"/>
      <point x="642" y="-87"/>
      <point x="646" y="93" type="curve"/>
      <point x="472" y="93" type="line"/>
    </contour>
    <contour>
      <point x="146" y="-71" type="line"/>
      <point x="167" y="-83"/>
      <point x="187" y="-97"/>
      <point x="207" y="-109" type="curve"/>
      <point x="204" y="-229"/>
      <point x="153" y="-296"/>
      <point x="128" y="-319" type="curve"/>
      <point x="177" y="-382" type="line"/>
      <point x="337" y="-269"/>
      <point x="334" y="-87"/>
      <point x="338" y="93" type="curve"/>
      <point x="164" y="93" type="line"/>
    </contour>
  </outline>
</glyph>
<glyph name="trademark" format="1">
  <advance width="2862"/>
  <unicode hex="2122"/>
  <outline>
    <contour>
      <point x="52" y="1370" type="line"/>
      <point x="314" y="1370" type="line"/>
      <point x="314" y="616" type="line"/>
      <point x="428" y="616" type="line"/>
      <point x="428" y="1370" type="line"/>
      <point x="693" y="1370" type="line"/>
      <point x="693" y="1465" type="line"/>
      <point x="52" y="1465" type="line"/>
    </contour>
    <contour>
      <point x="874" y="616" type="line"/>
      <point x="982" y="616" type="line"/>
      <point x="982" y="1270" type="line"/>
      <point x="1216" y="732" type="line"/>
      <point x="1309" y="732" type="line"/>
      <point x="1550" y="1267" type="line"/>
      <point x="1550" y="616" type="line"/>
      <point x="1654" y="616" type="line"/>
      <point x="1654" y="1464" type="line"/>
      <point x="1523" y="1464" type="line"/>
      <point x="1439" y="1268"/>
      <point x="1351" y="1072"/>
      <point x="1267" y="876" type="curve"/>
      <point x="1017" y="1465" type="line"/>
      <point x="874" y="1465" type="line"/>
    </contour>
  </outline>
</glyph>
<glyph name="commaaccent" format="1">
  <advance width="473"/>
  <unicode hex="F6C3"/>
  <outline>
    <contour>
      <point x="210" y="0" type="move" name="_bot"/>
    </contour>
    <contour>
      <point x="136" y="-86" type="line"/>
      <point x="136" y="-276" type="line"/>
      <point x="196" y="-289" type="line"/>
      <point x="193" y="-410"/>
      <point x="141" y="-477"/>
      <point x="116" y="-497" type="curve"/>
      <point x="165" y="-559" type="line"/>
      <point x="297" y="-468"/>
      <point x="321" y="-329"/>
      <point x="326" y="-171" type="curve"/>
      <point x="327" y="-86" type="line"/>
    </contour>
  </outline>
</glyph>
